<?xml version="1.0" standalone="no"?>
<!DOCTYPE svg PUBLIC "-//W3C//DTD SVG 20010904//EN"
 "http://www.w3.org/TR/2001/REC-SVG-20010904/DTD/svg10.dtd">
<svg version="1.0" xmlns="http://www.w3.org/2000/svg"
 width="2271.000000pt" height="2271.000000pt" viewBox="0 0 2271.000000 2271.000000"
 preserveAspectRatio="xMidYMid meet">
<metadata>
Created by potrace 1.14, written by Peter Selinger 2001-2017
</metadata>
<g transform="translate(0.000000,2271.000000) scale(0.100000,-0.100000)"
fill="#000000" stroke="none">
<path d="M10899 22706 c-2 -2 -69 -7 -149 -10 -80 -4 -163 -9 -185 -11 -22 -3
-76 -7 -120 -10 -44 -2 -100 -7 -125 -9 -25 -3 -72 -8 -105 -11 -33 -3 -76 -7
-95 -10 -19 -2 -62 -6 -95 -10 -33 -3 -71 -8 -85 -10 -14 -2 -63 -9 -110 -15
-47 -6 -96 -13 -110 -15 -14 -2 -45 -6 -70 -10 -25 -3 -56 -8 -70 -10 -14 -3
-41 -7 -60 -10 -54 -8 -294 -51 -340 -60 -14 -3 -61 -12 -105 -21 -419 -83
-918 -217 -1355 -364 -179 -60 -562 -203 -647 -241 -23 -11 -45 -19 -48 -19
-3 0 -25 -9 -48 -19 -23 -10 -71 -31 -107 -46 -197 -82 -651 -300 -838 -402
-689 -376 -1195 -709 -1755 -1155 -175 -140 -426 -353 -533 -453 -228 -213
-302 -284 -429 -411 -175 -176 -336 -347 -475 -504 -30 -35 -59 -68 -65 -74
-5 -6 -35 -40 -65 -76 -30 -36 -57 -67 -61 -70 -13 -12 -264 -326 -351 -440
-955 -1256 -1640 -2708 -1999 -4240 -22 -96 -43 -184 -45 -195 -3 -11 -9 -40
-14 -65 -4 -25 -22 -119 -40 -210 -29 -154 -79 -455 -95 -580 -4 -30 -9 -62
-10 -70 -2 -8 -6 -44 -10 -80 -3 -36 -8 -76 -10 -90 -2 -14 -6 -47 -9 -75 -5
-46 -8 -80 -21 -210 -2 -27 -7 -86 -10 -130 -3 -44 -8 -98 -10 -120 -27 -249
-27 -1268 -1 -1565 3 -25 7 -88 11 -140 6 -91 8 -112 20 -225 2 -27 7 -77 10
-110 4 -33 8 -71 10 -85 2 -14 7 -50 10 -80 11 -96 39 -290 55 -390 5 -30 12
-68 14 -85 6 -34 33 -195 42 -240 3 -16 16 -84 30 -150 14 -66 28 -133 30
-150 3 -16 32 -140 65 -275 146 -597 315 -1110 554 -1685 102 -245 165 -382
305 -665 96 -195 208 -407 232 -442 10 -14 18 -29 18 -31 0 -9 165 -291 259
-444 670 -1088 1580 -2110 2606 -2925 110 -87 206 -163 213 -169 108 -88 639
-454 850 -585 35 -21 82 -51 105 -65 552 -343 1294 -701 1980 -953 147 -54
488 -170 536 -182 9 -2 102 -29 206 -60 237 -69 630 -168 795 -200 14 -3 81
-16 150 -29 200 -40 264 -52 380 -70 19 -3 46 -7 60 -10 14 -2 43 -7 65 -10
23 -3 50 -7 60 -9 11 -2 43 -7 70 -10 111 -14 141 -18 165 -21 14 -2 50 -7 80
-10 30 -3 71 -8 90 -10 19 -2 64 -7 100 -10 36 -3 81 -7 100 -10 19 -2 71 -7
115 -10 44 -4 100 -8 125 -10 322 -28 1265 -28 1635 0 168 12 351 29 435 40
19 2 60 7 90 10 30 4 66 8 80 10 23 3 60 8 164 21 22 2 51 6 65 9 14 2 58 9
96 15 39 6 82 13 98 15 15 3 42 7 60 10 17 3 95 17 172 31 77 14 151 28 165
30 181 33 720 165 955 234 263 78 836 273 940 320 11 5 61 25 110 45 50 20 99
40 110 45 11 5 63 27 115 49 237 99 682 313 915 441 28 15 77 42 110 60 289
158 751 447 1025 643 87 62 373 272 400 294 8 7 90 72 181 145 91 73 192 156
224 183 31 28 67 58 79 68 11 10 35 31 51 45 17 15 69 61 115 102 179 158 595
567 750 736 654 714 1172 1425 1600 2195 50 90 95 171 100 179 5 8 56 107 113
220 93 183 126 253 235 490 164 355 374 921 502 1346 44 145 125 437 135 484
2 8 19 80 38 160 19 80 38 159 41 175 4 17 8 39 11 50 19 92 64 316 68 340 3
17 14 82 26 145 11 63 22 135 26 160 3 25 10 70 15 100 16 97 36 256 46 355 3
28 7 61 9 75 2 14 7 57 10 95 3 39 8 81 10 95 2 14 7 68 10 120 4 52 8 111 10
130 28 279 27 1340 0 1640 -3 25 -7 81 -10 125 -3 44 -8 98 -10 120 -6 51 -13
113 -21 195 -3 36 -8 73 -9 82 -2 9 -6 43 -10 75 -3 32 -10 90 -16 128 -5 39
-12 88 -15 110 -20 157 -115 672 -144 785 -5 19 -11 51 -14 70 -6 38 -107 444
-131 525 -95 325 -135 453 -200 645 -42 124 -80 234 -85 245 -5 11 -32 81 -61
155 -269 705 -617 1391 -1048 2060 -272 423 -693 983 -977 1300 -305 340 -288
322 -534 569 -185 186 -335 329 -494 471 -21 19 -44 40 -50 46 -37 35 -304
257 -426 355 -478 382 -1044 764 -1520 1027 -25 13 -67 37 -95 52 -121 67
-225 121 -437 227 -125 62 -229 113 -232 113 -2 0 -42 18 -88 39 -45 22 -148
67 -228 101 -80 34 -154 65 -165 70 -11 5 -56 23 -100 40 -44 17 -93 37 -110
44 -66 30 -522 188 -710 246 -295 92 -788 221 -965 254 -14 2 -104 20 -200 40
-167 34 -479 88 -585 101 -68 8 -115 15 -145 20 -14 3 -50 7 -80 10 -30 3 -66
7 -80 10 -14 2 -54 7 -90 10 -36 3 -81 8 -100 10 -19 2 -69 7 -110 10 -41 4
-91 8 -110 10 -19 2 -88 6 -153 10 -65 4 -135 9 -155 11 -41 6 -1068 14 -1073
10z m991 -100 c130 -7 266 -16 320 -21 25 -2 81 -6 125 -10 105 -8 171 -14
220 -21 22 -3 60 -7 85 -9 48 -3 212 -24 315 -40 17 -3 48 -7 70 -10 49 -7
161 -24 195 -30 14 -3 77 -14 140 -25 117 -20 146 -26 190 -35 14 -3 36 -7 50
-10 14 -3 36 -7 50 -10 14 -3 34 -7 45 -9 351 -71 893 -219 1255 -343 102 -35
192 -65 200 -67 82 -22 598 -231 860 -349 856 -386 1786 -966 2492 -1556 202
-168 362 -308 552 -484 189 -176 549 -546 726 -747 41 -47 78 -87 81 -90 8 -7
215 -255 259 -310 19 -24 46 -58 61 -75 14 -16 34 -42 45 -56 326 -434 338
-450 466 -639 635 -936 1122 -1960 1453 -3055 91 -298 210 -778 252 -1005 2
-14 10 -56 18 -95 8 -38 17 -86 20 -105 3 -19 11 -62 17 -95 6 -33 12 -69 13
-80 2 -11 6 -33 9 -50 5 -30 44 -294 51 -350 13 -101 16 -125 20 -170 3 -27 7
-63 10 -80 2 -16 6 -61 10 -100 3 -38 8 -83 10 -100 2 -16 6 -75 10 -130 4
-55 8 -118 10 -140 27 -286 27 -1154 0 -1490 -2 -33 -7 -98 -10 -145 -3 -47
-8 -101 -10 -120 -2 -19 -9 -89 -15 -156 -6 -66 -13 -132 -15 -145 -2 -13 -9
-67 -15 -119 -6 -52 -13 -108 -15 -125 -3 -16 -7 -46 -10 -65 -8 -64 -18 -129
-31 -205 -2 -16 -12 -68 -20 -115 -9 -47 -18 -98 -20 -115 -2 -16 -6 -41 -9
-55 -7 -33 -14 -68 -21 -105 -3 -16 -17 -82 -31 -145 -14 -63 -26 -125 -28
-137 -2 -11 -6 -30 -9 -41 -4 -11 -9 -29 -11 -39 -37 -183 -151 -595 -239
-868 -149 -463 -270 -775 -498 -1285 -56 -125 -287 -577 -377 -739 -322 -576
-677 -1101 -1090 -1611 -112 -137 -282 -339 -347 -410 -13 -14 -54 -59 -91
-100 -217 -239 -570 -590 -773 -770 -40 -36 -78 -70 -84 -76 -136 -131 -765
-633 -942 -752 -10 -7 -55 -38 -99 -69 -121 -85 -325 -221 -465 -308 -117 -74
-527 -315 -534 -315 -2 0 -41 -21 -87 -47 -134 -74 -520 -265 -694 -343 -88
-39 -178 -80 -200 -90 -258 -116 -800 -314 -1166 -425 -129 -40 -413 -119
-462 -130 -9 -2 -45 -11 -80 -20 -34 -9 -69 -18 -77 -20 -8 -2 -107 -24 -220
-49 -113 -24 -268 -56 -345 -71 -77 -14 -150 -27 -161 -29 -12 -3 -39 -7 -60
-10 -22 -4 -68 -11 -104 -17 -36 -6 -81 -12 -100 -15 -19 -2 -46 -6 -60 -9
-23 -4 -55 -8 -152 -20 -21 -3 -56 -7 -78 -10 -22 -3 -57 -7 -77 -10 -56 -7
-230 -24 -293 -29 -252 -21 -320 -25 -490 -33 -212 -10 -837 -10 -1045 0 -168
8 -205 10 -360 22 -44 4 -105 8 -135 11 -30 2 -73 6 -95 8 -22 3 -67 8 -100
11 -70 7 -369 44 -405 50 -14 2 -99 16 -190 30 -91 14 -172 28 -180 30 -8 2
-32 6 -52 9 -21 3 -57 10 -80 15 -24 5 -60 12 -81 15 -21 3 -111 22 -200 42
-89 20 -169 37 -177 39 -8 2 -71 17 -140 34 -69 18 -135 34 -147 36 -81 18
-483 138 -695 208 -521 173 -950 350 -1448 598 -654 326 -1233 685 -1800 1117
-118 90 -489 388 -500 402 -3 4 -41 37 -85 75 -44 38 -85 74 -91 80 -6 5 -51
46 -99 90 -658 596 -1274 1309 -1768 2045 -153 229 -203 306 -319 500 -638
1064 -1089 2208 -1346 3415 -22 105 -43 204 -46 220 -3 17 -7 39 -9 50 -3 11
-8 40 -12 65 -4 25 -9 54 -11 65 -7 35 -33 188 -38 225 -42 291 -59 423 -71
555 -2 28 -7 70 -10 95 -8 78 -20 221 -30 375 -26 408 -26 1046 0 1450 7 102
16 225 21 270 2 28 6 68 9 90 2 22 6 69 10 105 3 36 8 76 10 90 2 14 7 54 11
90 3 36 7 72 9 80 2 9 6 43 10 75 4 33 9 69 11 79 2 11 8 54 14 95 6 42 12 87
15 101 2 14 14 79 25 145 11 66 27 152 35 190 8 39 17 86 20 105 3 19 8 42 10
50 2 8 6 26 9 40 18 104 171 723 182 742 3 5 7 16 9 27 13 68 140 462 232 721
90 252 217 565 343 845 45 100 269 552 320 644 101 185 113 207 168 301 111
191 324 537 364 590 11 14 67 95 125 180 89 130 364 504 445 604 120 150 357
430 433 512 5 6 48 53 94 105 107 119 597 608 716 714 49 44 96 87 105 95 9 8
45 40 80 70 36 30 67 58 70 61 12 14 326 273 378 311 31 24 59 45 62 49 7 8
229 174 359 268 185 134 563 383 739 486 9 6 60 35 112 66 317 188 812 442
1115 574 17 7 53 23 80 35 421 189 1207 461 1635 565 196 48 350 85 370 89 14
2 48 10 75 16 28 6 59 14 70 16 32 7 178 35 205 40 14 2 72 13 130 24 126 23
233 41 280 46 19 2 46 6 60 9 32 6 72 12 135 19 28 4 100 13 160 21 111 14
172 21 280 30 33 3 80 7 105 10 25 3 86 7 135 11 50 3 108 7 130 9 22 2 112 7
200 10 88 4 161 8 163 9 4 5 796 -3 892 -8z"/>
<path d="M11277 22364 c-1 -1 -105 -4 -232 -8 -126 -3 -261 -8 -300 -11 -38
-2 -110 -7 -160 -10 -49 -3 -115 -8 -145 -11 -30 -2 -82 -7 -115 -10 -53 -4
-265 -27 -365 -39 -97 -12 -180 -23 -250 -35 -30 -5 -75 -12 -100 -15 -91 -13
-479 -86 -615 -116 -265 -59 -301 -67 -475 -114 -1527 -407 -2913 -1118 -4140
-2124 -163 -133 -260 -218 -455 -395 -135 -122 -578 -566 -695 -696 -52 -58
-98 -107 -101 -110 -3 -3 -62 -71 -131 -151 -458 -533 -870 -1118 -1228 -1744
-97 -170 -357 -675 -410 -795 -34 -78 -78 -177 -105 -235 -34 -73 -146 -351
-200 -495 -116 -308 -218 -621 -315 -965 -52 -184 -160 -647 -175 -745 -4 -24
-8 -47 -10 -50 -2 -3 -6 -22 -9 -42 -3 -21 -10 -57 -15 -80 -5 -24 -12 -63
-16 -88 -3 -25 -8 -52 -10 -60 -2 -8 -7 -35 -10 -60 -3 -25 -8 -52 -10 -60 -2
-8 -6 -35 -9 -60 -3 -25 -8 -54 -10 -65 -3 -19 -9 -60 -21 -150 -8 -63 -35
-295 -40 -345 -2 -25 -7 -67 -9 -95 -18 -170 -32 -398 -41 -635 -12 -309 -3
-870 20 -1170 2 -30 7 -93 10 -140 4 -47 8 -96 10 -110 2 -14 6 -56 10 -95 8
-94 36 -328 50 -425 8 -56 17 -117 21 -145 3 -16 7 -43 9 -58 2 -16 6 -40 9
-55 3 -15 8 -43 11 -62 12 -77 28 -163 60 -325 297 -1488 916 -2923 1799
-4165 80 -113 313 -423 382 -507 30 -38 60 -75 67 -83 25 -31 102 -125 112
-136 5 -6 33 -37 60 -70 46 -54 123 -142 135 -154 3 -3 45 -50 94 -105 109
-121 616 -629 740 -740 49 -44 94 -85 100 -90 10 -10 267 -229 321 -274 61
-51 231 -186 305 -241 46 -36 91 -70 100 -77 275 -217 908 -624 1295 -833 44
-23 103 -55 130 -70 28 -15 140 -73 250 -128 552 -277 1142 -509 1730 -683 94
-27 190 -56 215 -64 63 -19 471 -119 615 -150 146 -32 145 -32 186 -39 19 -3
66 -12 104 -20 39 -8 88 -17 110 -20 23 -4 50 -8 62 -10 20 -4 34 -7 163 -27
36 -5 76 -12 90 -14 14 -2 45 -6 70 -10 25 -3 56 -8 70 -10 14 -2 50 -7 80
-10 30 -3 62 -8 70 -10 8 -2 51 -7 94 -10 43 -4 86 -8 95 -10 9 -1 54 -6 101
-10 47 -3 96 -8 110 -9 14 -2 72 -7 130 -10 58 -4 128 -9 155 -11 310 -21
1055 -22 1310 0 22 2 83 6 135 10 52 4 111 8 130 10 19 2 71 6 115 10 44 4 94
8 110 10 17 2 58 7 92 10 34 3 71 8 82 10 11 2 46 6 78 10 32 3 69 8 83 10 14
2 45 7 70 10 25 3 56 8 70 10 14 2 45 7 70 10 25 3 52 8 60 10 8 2 35 7 60 10
38 5 242 42 330 59 222 43 562 121 684 157 38 12 78 23 90 25 60 11 365 104
591 179 322 107 762 279 1020 399 39 18 113 53 165 77 627 291 1314 705 1895
1143 119 89 345 265 355 276 3 3 43 37 90 75 47 38 87 72 90 75 3 3 43 38 90
79 366 318 774 725 1076 1071 21 25 41 47 44 50 3 3 25 30 50 60 25 30 50 60
56 65 28 25 275 339 406 515 234 316 413 582 595 885 106 177 145 247 268 470
107 196 312 618 389 802 14 35 37 86 50 115 13 29 60 145 104 258 252 642 458
1364 576 2020 14 81 26 150 31 185 3 22 8 54 11 70 3 17 7 41 9 55 2 14 9 59
15 100 16 111 38 287 45 355 3 33 8 74 10 90 2 17 7 66 10 110 3 44 8 94 10
110 2 17 6 75 10 130 4 55 8 120 10 145 22 256 22 975 0 1315 -2 28 -6 95 -10
150 -3 55 -8 111 -10 125 -2 14 -6 59 -10 100 -12 143 -15 175 -26 260 -12
104 -18 146 -24 185 -3 17 -7 53 -10 80 -3 28 -8 61 -10 75 -3 14 -7 43 -10
65 -54 386 -192 997 -328 1455 -401 1342 -1050 2585 -1924 3684 -143 179 -181
224 -353 421 -95 109 -135 152 -254 279 -199 213 -538 542 -731 710 -49 43
-103 90 -120 105 -98 87 -230 194 -530 429 -42 33 -255 188 -320 233 -193 134
-248 171 -382 257 -485 311 -1033 604 -1548 828 -800 346 -1687 610 -2525 750
-52 8 -106 17 -120 20 -14 2 -45 7 -70 10 -25 3 -52 7 -60 9 -8 2 -42 7 -75
10 -33 4 -67 8 -75 10 -8 2 -42 7 -75 10 -33 4 -67 8 -75 10 -8 2 -51 7 -95
11 -44 3 -87 8 -96 9 -9 2 -52 6 -95 10 -43 3 -99 8 -124 10 -55 5 -205 16
-280 21 -105 6 -699 21 -703 18z m668 -248 c44 -3 121 -8 170 -11 50 -4 108
-8 130 -10 22 -2 74 -7 115 -10 41 -3 91 -8 110 -10 19 -2 60 -7 90 -10 30 -3
72 -8 93 -10 20 -3 54 -7 75 -10 40 -5 241 -33 282 -40 14 -2 45 -7 70 -10 25
-3 52 -8 60 -10 8 -2 35 -7 60 -10 74 -11 434 -83 600 -121 209 -49 454 -113
635 -169 83 -25 159 -48 170 -50 33 -7 329 -109 475 -163 660 -244 1262 -534
1854 -894 71 -43 130 -78 131 -78 6 0 375 -246 470 -313 659 -465 1315 -1047
1829 -1622 54 -60 111 -123 126 -140 107 -119 364 -437 505 -625 284 -380 617
-894 805 -1245 18 -33 43 -79 56 -102 93 -162 311 -623 464 -978 81 -188 205
-528 308 -845 109 -337 263 -943 317 -1255 2 -11 12 -63 21 -115 9 -52 18
-104 19 -115 8 -52 17 -105 25 -155 5 -30 12 -75 15 -100 3 -25 12 -97 21
-160 8 -63 17 -131 19 -150 5 -34 8 -68 20 -192 3 -32 7 -84 10 -115 10 -110
20 -281 30 -518 5 -108 5 -757 0 -835 -2 -30 -6 -116 -10 -190 -4 -74 -8 -148
-10 -165 -1 -16 -5 -68 -9 -115 -4 -47 -9 -102 -12 -124 -2 -21 -6 -66 -9
-100 -3 -33 -7 -77 -10 -96 -2 -19 -7 -53 -10 -75 -26 -209 -46 -363 -50 -375
-3 -8 -7 -33 -10 -55 -3 -22 -12 -78 -20 -125 -9 -47 -18 -97 -20 -112 -21
-146 -126 -606 -201 -883 -95 -349 -294 -947 -369 -1112 -8 -17 -15 -34 -15
-37 0 -13 -175 -415 -253 -581 -156 -333 -309 -619 -499 -935 -54 -91 -104
-174 -111 -185 -51 -85 -324 -490 -412 -611 -97 -133 -277 -369 -332 -435 -11
-13 -80 -96 -153 -184 -74 -88 -137 -162 -140 -165 -4 -3 -28 -30 -55 -60
-207 -237 -597 -630 -849 -855 -43 -38 -86 -77 -95 -86 -122 -119 -586 -486
-873 -692 -230 -165 -790 -527 -814 -527 -3 0 -18 -8 -32 -19 -60 -41 -421
-234 -637 -341 -229 -112 -312 -150 -510 -234 -88 -38 -178 -76 -200 -86 -60
-26 -343 -132 -490 -183 -571 -200 -1143 -346 -1765 -452 -14 -2 -72 -11 -130
-20 -58 -9 -116 -18 -130 -20 -28 -4 -69 -10 -190 -25 -47 -6 -98 -12 -115
-15 -16 -2 -64 -7 -105 -10 -41 -4 -86 -8 -100 -11 -13 -2 -67 -6 -120 -9 -52
-3 -111 -8 -130 -10 -31 -4 -171 -12 -360 -21 -110 -5 -708 -5 -825 1 -220 9
-410 21 -505 30 -25 2 -74 7 -110 10 -36 3 -81 8 -100 10 -19 2 -60 7 -90 10
-73 8 -121 14 -205 25 -38 5 -90 12 -115 15 -25 3 -97 14 -160 25 -63 11 -135
22 -159 25 -23 3 -46 7 -50 9 -3 2 -28 7 -56 10 -27 4 -68 11 -90 16 -22 5
-128 28 -235 50 -107 23 -208 45 -225 50 -16 5 -41 11 -55 14 -117 20 -543
143 -850 245 -372 124 -772 282 -1105 436 -125 58 -544 269 -603 304 -29 17
-55 31 -57 31 -6 0 -263 148 -370 213 -472 286 -949 626 -1330 946 -164 139
-159 134 -253 218 -215 193 -300 273 -496 469 -525 524 -989 1094 -1389 1705
-125 191 -317 502 -317 514 0 4 -8 19 -19 33 -51 73 -325 597 -422 808 -64
140 -148 332 -189 434 -23 58 -48 119 -55 135 -34 78 -144 382 -211 581 -112
338 -246 828 -304 1114 -5 25 -12 56 -15 70 -24 111 -93 505 -111 630 -2 19
-7 53 -10 75 -3 22 -7 51 -9 65 -12 83 -33 265 -41 350 -2 25 -6 65 -8 90 -14
121 -17 170 -33 445 -16 271 -9 1040 12 1315 9 123 16 202 20 242 2 24 7 73
10 109 2 37 7 82 10 100 5 37 21 165 30 244 4 28 8 61 10 74 2 13 7 45 10 70
6 38 29 182 50 306 3 17 12 66 21 110 9 44 18 91 20 105 12 67 30 151 71 325
24 105 46 199 49 210 2 11 20 79 39 150 20 72 38 137 40 145 16 62 93 314 138
450 245 745 601 1514 1012 2190 243 398 545 827 824 1170 93 115 378 449 396
465 7 6 43 44 80 85 159 175 496 510 680 675 48 44 93 85 99 90 6 6 42 37 81
70 38 33 76 66 83 73 8 7 62 51 120 99 59 48 109 90 112 93 9 11 261 204 380
291 282 208 649 451 910 602 988 574 2015 980 3080 1216 146 32 413 87 470 95
33 6 51 8 130 22 19 3 44 8 55 9 17 3 228 34 340 50 17 2 57 7 90 10 33 4 76
8 95 11 19 2 64 6 100 9 36 3 79 8 95 10 27 3 73 7 250 20 28 2 115 7 195 11
80 4 147 8 149 10 6 5 906 -4 996 -10z"/>
<path d="M11491 21437 c-24 -62 -54 -134 -67 -162 -49 -110 -415 -998 -412
-1001 2 -1 50 -4 107 -6 l103 -3 65 157 65 157 162 -4 c88 -2 193 -4 232 -4
l72 -1 57 -160 c49 -136 61 -160 79 -161 200 -10 208 -10 201 14 -4 12 -44
123 -90 247 -91 247 -369 995 -380 1023 -6 14 -20 17 -79 17 l-71 -1 -44 -112z
m154 -379 c21 -62 53 -155 71 -205 32 -92 33 -93 11 -94 -105 -2 -274 4 -280
10 -4 4 20 77 54 162 34 85 68 173 77 197 8 23 18 42 22 42 4 0 24 -51 45
-112z"/>
<path d="M10729 21536 c-2 -2 -44 -6 -94 -10 -49 -3 -91 -5 -92 -6 -1 0 0 -21
2 -47 2 -27 7 -88 10 -138 3 -49 8 -112 10 -140 2 -27 7 -95 10 -150 3 -55 8
-118 10 -140 2 -22 7 -89 10 -149 4 -60 8 -116 10 -125 1 -9 6 -70 10 -136 3
-66 8 -136 10 -155 2 -19 5 -52 6 -73 l3 -38 60 5 c34 2 78 5 100 5 l38 1 -6
123 c-4 68 -8 134 -10 147 -3 14 -7 77 -11 140 -3 63 -8 131 -10 150 -2 19 -6
78 -9 130 -8 116 -16 241 -21 295 -2 22 -7 96 -11 165 -6 115 -13 157 -25 146z"/>
<path d="M10209 21496 c-2 -2 -29 -7 -59 -11 -30 -3 -62 -8 -70 -10 -8 -2 -37
-7 -65 -10 -44 -5 -68 -8 -139 -21 -11 -2 -56 -8 -100 -14 -45 -6 -92 -13
-106 -15 -14 -2 -54 -9 -90 -14 -36 -6 -68 -11 -71 -11 -3 0 -2 -24 2 -52 5
-29 12 -73 15 -98 3 -25 8 -54 10 -65 2 -10 6 -37 9 -60 4 -22 8 -51 10 -65
10 -60 24 -159 30 -200 8 -55 14 -97 20 -130 2 -14 7 -45 10 -70 3 -25 8 -58
11 -74 4 -16 7 -40 9 -55 6 -53 16 -126 20 -141 2 -8 7 -39 10 -69 4 -30 9
-63 11 -75 2 -12 7 -41 10 -66 8 -58 10 -61 42 -55 15 2 50 7 77 11 28 3 58 8
69 10 10 2 44 6 75 10 31 3 58 8 61 9 3 2 30 6 60 9 30 4 78 11 105 16 28 5
75 12 105 16 30 4 58 9 63 10 4 1 19 2 35 3 49 2 52 10 41 86 -16 110 -18 117
-37 111 -9 -3 -42 -8 -72 -11 -30 -3 -68 -9 -85 -11 -136 -24 -351 -51 -357
-46 -3 4 -9 36 -13 72 -4 36 -8 67 -10 70 -2 3 -6 30 -10 60 -4 30 -11 77 -15
105 -4 27 -7 51 -6 52 0 1 21 4 46 8 25 3 56 8 70 10 61 10 239 36 275 41 64
8 63 8 55 56 -4 24 -11 62 -14 86 -8 59 -10 61 -58 52 -24 -5 -63 -11 -88 -14
-25 -3 -54 -8 -65 -10 -11 -2 -40 -7 -65 -11 -175 -27 -190 -28 -190 -13 0 14
-17 134 -26 183 -3 17 -7 46 -9 65 -3 19 -7 45 -9 58 -3 13 0 22 7 23 7 0 19
2 27 3 8 2 38 6 65 10 28 3 61 8 75 10 47 8 105 17 135 21 99 13 156 23 161
28 5 5 16 197 12 197 -3 0 -7 -2 -9 -4z"/>
<path d="M12470 21488 c0 -12 -20 -156 -35 -248 -2 -14 -7 -45 -10 -70 -3 -25
-10 -70 -15 -100 -5 -30 -12 -75 -15 -100 -4 -25 -19 -130 -35 -235 -16 -104
-32 -210 -35 -235 -8 -58 -14 -97 -30 -195 -7 -44 -12 -81 -11 -82 2 -2 30 -7
126 -22 68 -11 79 -7 81 34 0 11 2 29 4 40 13 68 15 85 20 130 3 28 8 61 10
75 3 14 7 39 9 55 3 17 10 61 16 100 6 38 12 71 14 72 2 2 21 -27 43 -64 98
-168 308 -509 316 -515 6 -3 33 -9 61 -13 28 -4 58 -8 66 -10 48 -8 130 -16
130 -12 0 3 -77 135 -172 293 -94 159 -190 321 -213 361 l-43 71 106 99 c58
54 119 111 136 127 67 62 254 237 300 280 26 25 47 46 45 47 -23 5 -91 15
-169 25 -19 3 -44 7 -55 9 -14 3 -36 -10 -70 -42 -28 -25 -99 -91 -159 -147
-60 -55 -148 -138 -195 -183 -47 -45 -88 -80 -89 -78 -2 2 4 54 13 117 9 62
18 127 20 143 2 17 8 57 14 90 6 33 13 83 17 112 7 58 7 57 -81 68 -27 3 -65
8 -82 11 -25 5 -33 3 -33 -8z"/>
<path d="M9180 21323 c-52 -13 -104 -26 -115 -28 -49 -11 -480 -119 -483 -120
-4 -3 305 -1245 311 -1251 4 -5 140 26 183 41 8 2 -32 178 -121 534 -73 292
-130 533 -126 535 3 2 108 30 233 61 l226 57 -3 95 c-2 52 -5 96 -7 97 -1 2
-46 -8 -98 -21z"/>
<path d="M13930 21175 c-135 -23 -246 -77 -337 -163 -161 -152 -239 -373 -207
-588 22 -145 76 -254 179 -359 132 -135 313 -213 513 -220 294 -10 544 155
646 426 31 82 37 115 41 219 14 325 -197 583 -550 674 -79 20 -204 25 -285 11z
m235 -200 c319 -67 480 -385 340 -670 -43 -89 -82 -136 -154 -184 -73 -50
-138 -72 -228 -79 -244 -17 -476 146 -522 366 -35 165 23 349 144 461 111 102
260 140 420 106z"/>
<path d="M7698 20889 c-261 -72 -446 -231 -524 -451 -22 -62 -29 -112 -29
-213 0 -185 48 -307 181 -464 68 -80 221 -164 344 -189 64 -13 242 -6 310 12
92 24 234 96 305 153 284 230 326 643 95 931 -81 100 -194 178 -318 219 -74
24 -281 25 -364 2z m362 -226 c32 -15 81 -53 115 -88 100 -101 145 -219 140
-360 -7 -197 -141 -365 -343 -429 -272 -86 -534 62 -607 343 -98 380 331 710
695 534z"/>
<path d="M15766 20537 c-12 -19 -205 -372 -280 -512 -15 -27 -31 -57 -36 -65
-9 -15 -222 -405 -267 -489 -13 -25 -20 -48 -16 -52 25 -22 166 -90 173 -83 7
8 317 573 460 839 24 44 48 88 54 97 11 15 40 1 275 -126 144 -79 268 -149
274 -155 8 -8 9 -16 1 -29 -6 -9 -27 -46 -46 -82 -20 -36 -99 -181 -177 -323
-77 -142 -141 -260 -141 -263 0 -2 -10 -21 -23 -42 -13 -20 -47 -80 -75 -133
l-51 -96 85 -47 c47 -27 90 -44 94 -40 5 5 20 30 34 57 14 26 38 68 52 95 177
320 524 961 524 968 0 5 -39 31 -87 57 -49 26 -117 63 -152 83 -71 39 -181 99
-281 152 -36 19 -136 75 -223 123 -156 86 -158 87 -171 66z"/>
<path d="M6335 20238 c-170 -99 -332 -192 -360 -208 -104 -58 -115 -65 -115
-72 0 -3 46 -33 103 -66 135 -78 399 -232 462 -269 l50 -29 2 -70 c1 -38 4
-208 6 -377 3 -170 7 -310 9 -312 2 -1 91 48 198 110 107 62 293 168 412 237
l217 124 -45 80 c-25 43 -47 80 -49 82 -2 2 -121 -64 -266 -147 -144 -83 -264
-150 -265 -148 -2 2 -6 122 -8 267 -3 145 -9 267 -13 271 -10 10 -334 196
-387 221 -21 11 -35 23 -30 28 5 5 50 32 99 61 181 105 281 162 319 183 21 11
40 26 42 31 6 15 -49 178 -61 181 -6 1 -149 -79 -320 -178z"/>
<path d="M5370 19615 c-157 -114 -289 -211 -293 -215 -5 -4 20 -47 55 -95 35
-48 81 -112 104 -144 181 -251 569 -779 582 -793 16 -17 34 -5 312 198 162
118 294 219 292 225 -7 28 -105 148 -115 142 -7 -4 -63 -44 -125 -90 -205
-152 -292 -213 -300 -213 -5 0 -24 21 -42 48 -19 26 -66 91 -106 144 l-73 98
57 43 c31 24 114 85 185 136 79 57 125 97 121 104 -4 7 -29 42 -57 80 -33 45
-53 65 -61 59 -106 -84 -356 -258 -363 -253 -19 13 -193 262 -189 270 3 4 89
68 190 142 102 74 185 138 186 142 0 7 -10 30 -63 150 l-13 29 -284 -207z"/>
<path d="M11287 19753 c-1 0 -99 -4 -217 -7 -118 -4 -231 -8 -250 -10 -19 -2
-80 -7 -135 -11 -55 -4 -116 -8 -135 -11 -97 -11 -138 -16 -170 -19 -19 -3
-60 -7 -90 -10 -55 -6 -82 -10 -275 -40 -152 -24 -155 -25 -235 -42 -41 -8
-86 -17 -100 -19 -21 -4 -43 -8 -95 -20 -5 -1 -21 -4 -35 -7 -146 -30 -465
-115 -699 -187 -137 -42 -490 -165 -546 -190 -11 -5 -108 -45 -215 -90 -356
-149 -856 -408 -1165 -604 -294 -186 -554 -370 -830 -590 -359 -285 -760 -674
-1124 -1091 -336 -385 -715 -935 -998 -1450 -49 -89 -273 -539 -273 -549 0 -3
-14 -36 -31 -73 -17 -38 -47 -106 -66 -153 -19 -47 -41 -98 -48 -115 -8 -16
-43 -109 -78 -205 -188 -509 -307 -961 -407 -1535 -17 -97 -17 -94 -25 -155
-3 -30 -8 -66 -10 -80 -15 -103 -33 -261 -41 -350 -2 -30 -6 -78 -9 -106 -5
-48 -10 -138 -20 -349 -6 -122 -6 -544 0 -675 8 -176 21 -363 30 -435 2 -22 7
-69 10 -105 3 -36 8 -78 10 -95 2 -16 6 -55 10 -85 3 -30 10 -80 15 -110 5
-30 12 -77 15 -105 4 -27 8 -57 10 -65 2 -8 7 -31 10 -50 15 -91 27 -161 41
-230 9 -41 17 -84 20 -95 7 -35 24 -119 29 -140 3 -15 53 -216 69 -280 2 -5 6
-23 10 -40 5 -16 30 -104 57 -195 513 -1735 1571 -3255 3024 -4345 356 -267
674 -471 1070 -685 98 -54 404 -205 495 -245 47 -21 108 -48 135 -60 313 -141
773 -301 1160 -404 138 -37 453 -110 535 -125 19 -3 46 -8 60 -11 14 -3 63
-12 110 -20 47 -8 96 -17 110 -20 29 -5 227 -33 280 -40 85 -11 118 -14 170
-20 30 -3 75 -7 100 -10 67 -7 154 -14 255 -20 50 -3 124 -8 165 -11 93 -6
666 -6 775 0 44 3 125 8 180 11 55 3 116 8 135 10 19 2 67 7 105 10 39 3 81 8
95 10 14 2 52 6 85 10 33 3 71 8 85 10 54 8 107 15 150 20 25 3 56 8 70 10 14
3 39 7 55 9 33 6 72 12 125 21 19 3 91 17 160 31 69 14 136 28 150 30 79 15
418 101 550 140 356 105 756 249 997 360 30 13 55 24 58 24 8 0 171 77 345
164 182 91 228 116 380 201 41 24 91 51 110 62 96 54 294 179 460 291 165 111
493 350 545 399 11 10 40 34 65 53 25 19 47 37 50 40 3 3 48 41 100 85 52 44
100 84 106 90 6 5 53 48 105 95 146 132 461 450 598 605 68 77 137 155 153
173 65 74 281 347 368 468 636 875 1083 1810 1350 2828 23 87 43 165 45 174 2
10 10 46 19 82 8 36 17 76 20 90 3 14 16 81 30 150 14 69 28 141 31 160 3 19
7 46 10 60 3 14 7 40 10 58 3 17 7 44 9 60 3 15 8 47 11 72 3 25 8 56 10 70 6
38 14 104 20 168 3 31 7 64 10 72 2 8 7 53 10 100 4 47 8 98 10 114 2 15 7 83
10 150 4 66 9 137 11 156 5 48 4 742 -1 810 -2 30 -7 98 -10 150 -8 120 -13
180 -21 255 -4 33 -8 76 -10 95 -2 19 -5 51 -8 70 -2 19 -7 58 -10 85 -6 52
-14 112 -21 155 -3 14 -9 57 -15 95 -5 39 -12 81 -15 95 -3 14 -8 39 -10 55
-3 17 -10 55 -16 85 -6 30 -12 66 -15 80 -2 14 -7 36 -10 50 -3 14 -8 36 -10
50 -3 14 -12 54 -20 90 -9 36 -18 76 -20 90 -19 101 -129 491 -204 725 -167
518 -455 1143 -763 1660 -398 667 -913 1303 -1494 1845 -83 78 -100 93 -223
200 -41 36 -77 68 -80 71 -17 20 -355 284 -485 378 -198 144 -602 411 -621
411 -2 0 -27 15 -56 33 -29 19 -75 46 -103 62 -27 15 -89 49 -137 76 -600 334
-1393 638 -2088 799 -258 60 -656 132 -855 155 -27 3 -66 7 -85 10 -19 2 -64
7 -100 11 -36 3 -78 8 -95 10 -16 1 -73 6 -125 9 -52 4 -111 9 -130 11 -62 6
-599 22 -603 17z m303 -238 c129 -3 258 -7 285 -9 28 -2 88 -7 135 -10 47 -3
95 -8 106 -10 12 -2 54 -7 95 -11 41 -3 87 -8 104 -10 16 -3 84 -11 150 -20
66 -8 134 -18 150 -20 466 -80 803 -159 1195 -281 80 -25 154 -49 165 -53 11
-5 63 -24 115 -41 116 -40 460 -177 561 -223 41 -19 97 -45 124 -57 345 -155
863 -450 1200 -684 220 -152 597 -445 735 -569 20 -18 80 -72 135 -122 98 -87
425 -411 516 -510 40 -44 174 -196 233 -265 286 -334 624 -816 848 -1210 107
-189 127 -227 224 -420 210 -422 366 -811 503 -1255 71 -231 151 -546 187
-735 3 -14 11 -56 19 -95 14 -68 29 -152 40 -225 3 -19 8 -46 10 -60 3 -14 7
-43 10 -65 3 -22 7 -50 10 -63 2 -13 7 -50 10 -83 4 -33 8 -68 10 -77 1 -9 6
-51 10 -92 4 -41 9 -82 10 -90 2 -8 6 -62 10 -119 4 -58 9 -116 10 -130 21
-176 21 -856 0 -1102 -2 -24 -6 -80 -10 -124 -12 -145 -13 -160 -18 -200 -3
-22 -9 -67 -12 -100 -3 -33 -8 -67 -10 -75 -2 -8 -6 -40 -10 -71 -3 -31 -8
-67 -10 -80 -3 -13 -7 -42 -10 -64 -3 -22 -7 -51 -10 -65 -3 -14 -12 -63 -20
-110 -8 -47 -17 -96 -20 -110 -3 -14 -8 -38 -10 -55 -30 -170 -140 -597 -212
-820 -19 -60 -37 -117 -39 -125 -7 -32 -124 -351 -172 -470 -336 -835 -806
-1610 -1381 -2280 -193 -225 -548 -589 -740 -760 -46 -41 -89 -80 -95 -85 -6
-6 -51 -44 -101 -85 -49 -41 -92 -77 -95 -80 -3 -3 -25 -21 -50 -40 -25 -19
-47 -37 -50 -40 -3 -4 -70 -56 -150 -116 -701 -533 -1524 -968 -2345 -1239
-140 -46 -320 -102 -385 -119 -30 -8 -89 -23 -130 -34 -74 -20 -266 -66 -345
-83 -93 -20 -184 -38 -210 -43 -11 -2 -65 -11 -120 -20 -55 -10 -111 -19 -125
-21 -14 -3 -61 -9 -105 -15 -44 -6 -91 -13 -105 -15 -63 -11 -357 -40 -500
-50 -329 -21 -828 -22 -1095 -1 -33 3 -96 8 -140 11 -44 3 -96 8 -115 10 -19
2 -62 7 -95 10 -33 4 -71 8 -85 10 -14 2 -52 7 -85 10 -33 4 -67 8 -75 10 -8
2 -35 7 -60 10 -25 3 -85 13 -135 21 -49 9 -106 18 -125 20 -19 2 -50 9 -70
14 -19 5 -55 12 -80 15 -24 4 -47 8 -51 10 -3 2 -20 7 -37 10 -147 26 -541
129 -766 202 -249 79 -589 205 -747 276 -30 14 -92 41 -139 62 -92 40 -445
215 -538 266 -446 246 -788 473 -1212 806 -217 170 -426 359 -685 618 -310
311 -529 565 -790 915 -179 242 -437 642 -567 880 -19 36 -49 90 -66 121 -178
324 -396 825 -527 1209 -138 408 -260 886 -320 1260 -3 19 -10 60 -15 90 -10
58 -25 163 -35 245 -3 28 -10 84 -15 125 -5 41 -12 109 -15 150 -3 41 -8 86
-10 100 -26 170 -27 1092 0 1320 2 23 13 137 20 220 2 19 5 53 8 75 3 22 9 63
12 90 8 67 14 110 25 175 5 30 12 73 15 95 2 22 7 51 10 65 3 14 8 41 11 60
31 188 113 541 179 783 59 213 218 679 280 822 7 17 40 93 73 170 303 707 706
1369 1194 1962 60 73 114 138 121 145 6 7 43 49 82 93 227 260 575 598 880
856 90 76 356 283 478 371 218 159 596 396 862 541 708 385 1549 689 2300 832
182 35 259 48 335 60 28 4 102 15 140 20 82 12 168 22 255 31 39 3 77 8 85 9
8 2 62 6 120 10 58 4 121 9 140 11 19 2 136 6 260 10 124 3 227 8 228 9 2 2 9
2 15 0 7 -2 118 -6 247 -10z"/>
<path d="M11167 19284 c-1 -1 -74 -5 -162 -9 -88 -3 -176 -8 -195 -10 -19 -1
-73 -6 -120 -9 -47 -4 -103 -9 -125 -11 -41 -3 -131 -13 -175 -20 -14 -2 -50
-6 -80 -10 -30 -3 -66 -8 -80 -10 -14 -3 -41 -7 -60 -10 -19 -3 -60 -10 -90
-15 -30 -5 -71 -12 -90 -14 -151 -20 -543 -110 -826 -191 -234 -67 -591 -188
-709 -240 -16 -7 -64 -27 -105 -43 -250 -99 -654 -297 -924 -453 -443 -254
-868 -555 -1241 -878 -179 -155 -190 -166 -435 -411 -237 -237 -266 -267 -375
-395 -33 -38 -63 -72 -66 -75 -16 -15 -229 -282 -306 -385 -504 -674 -895
-1418 -1162 -2211 -58 -173 -102 -315 -126 -404 -2 -8 -12 -42 -21 -75 -9 -33
-17 -67 -19 -75 -2 -8 -18 -73 -35 -145 -27 -116 -80 -370 -93 -450 -49 -296
-53 -324 -62 -420 -4 -38 -9 -77 -10 -85 -1 -8 -6 -53 -10 -100 -4 -47 -9 -92
-10 -101 -4 -18 -15 -183 -21 -304 -4 -101 -5 -683 0 -750 2 -27 7 -97 10
-155 9 -141 19 -242 32 -350 2 -19 7 -58 9 -86 3 -28 7 -60 9 -70 2 -11 7 -44
10 -74 4 -30 11 -77 16 -105 5 -27 12 -70 15 -95 4 -25 15 -88 25 -140 10 -52
21 -106 23 -120 45 -244 174 -721 272 -1000 50 -143 105 -291 120 -325 7 -16
31 -75 53 -130 23 -55 55 -131 72 -170 18 -38 41 -90 52 -115 27 -61 208 -422
217 -435 5 -5 30 -50 56 -100 26 -49 63 -114 81 -143 19 -29 34 -54 34 -57 0
-7 166 -270 230 -365 49 -72 117 -168 197 -280 36 -49 237 -306 282 -360 81
-97 95 -112 176 -204 241 -273 547 -571 839 -817 16 -13 34 -29 40 -34 31 -28
255 -202 356 -277 750 -555 1621 -983 2528 -1242 137 -40 398 -106 472 -120
14 -2 57 -11 95 -20 39 -8 84 -17 100 -21 55 -10 337 -56 374 -61 20 -2 68 -8
106 -14 39 -5 95 -12 125 -15 30 -3 66 -8 80 -10 14 -2 68 -7 120 -11 52 -3
109 -8 125 -10 180 -23 888 -22 1149 1 23 2 75 6 116 10 83 7 126 11 290 30
50 6 121 15 151 20 27 5 68 11 134 20 22 3 65 10 95 16 30 6 66 12 80 15 384
71 830 190 1195 319 72 25 139 50 150 55 11 5 85 35 165 66 563 221 1174 559
1705 944 129 94 391 300 439 345 6 5 27 23 46 39 252 207 645 600 891 891 19
22 36 42 39 45 3 3 58 70 121 150 224 281 427 572 607 872 127 210 192 330
316 583 252 510 428 989 567 1535 43 169 107 462 124 570 3 19 7 46 10 60 3
14 7 41 10 60 3 19 7 46 10 60 2 14 7 43 9 65 15 116 18 141 21 155 2 8 6 47
10 85 4 39 8 81 10 95 3 22 7 60 20 225 24 292 24 919 1 1165 -2 19 -7 71 -11
115 -9 110 -15 164 -20 205 -3 19 -7 58 -10 85 -3 28 -8 61 -10 75 -2 14 -7
45 -10 70 -3 25 -12 83 -20 130 -8 47 -17 103 -20 125 -4 22 -12 67 -20 100
-7 33 -16 77 -19 98 -13 85 -92 403 -147 597 -294 1026 -791 1974 -1475 2816
-68 83 -129 158 -136 165 -7 8 -33 37 -57 64 -468 532 -1009 1003 -1596 1390
-226 148 -383 243 -600 360 -760 410 -1565 688 -2415 834 -174 30 -199 34
-295 46 -27 3 -64 8 -81 10 -16 2 -59 7 -95 10 -35 4 -75 8 -88 10 -13 2 -67
7 -120 10 -53 4 -107 9 -121 11 -54 8 -725 25 -733 18z m668 -108 c17 -2 79
-7 139 -11 60 -4 116 -8 125 -10 9 -1 50 -6 91 -10 41 -4 82 -9 90 -10 8 -2
44 -6 80 -10 36 -4 72 -9 82 -10 9 -2 38 -6 65 -10 43 -6 239 -39 303 -50 14
-3 39 -7 55 -10 207 -37 636 -150 901 -236 1029 -335 1942 -857 2772 -1583
147 -128 510 -487 633 -626 46 -52 87 -97 90 -100 3 -3 54 -63 113 -135 58
-71 112 -137 119 -145 83 -100 298 -396 409 -565 208 -316 422 -699 569 -1020
17 -38 45 -99 61 -135 97 -211 246 -616 332 -901 56 -185 143 -532 171 -675
16 -89 55 -309 65 -374 18 -116 18 -119 30 -215 6 -49 12 -103 15 -120 2 -16
7 -65 10 -107 3 -43 8 -87 10 -98 2 -10 7 -75 10 -142 3 -68 8 -154 11 -193 5
-92 5 -545 -1 -660 -5 -102 -13 -234 -21 -315 -2 -30 -7 -82 -9 -115 -3 -33
-8 -76 -10 -95 -6 -43 -14 -111 -21 -165 -71 -595 -267 -1331 -510 -1925 -104
-252 -325 -714 -399 -829 -14 -22 -25 -43 -25 -45 0 -15 -219 -371 -323 -526
-174 -259 -450 -619 -602 -786 -5 -6 -39 -44 -75 -84 -203 -229 -465 -486
-725 -711 -955 -827 -2140 -1427 -3364 -1704 -83 -19 -416 -85 -451 -90 -25
-3 -56 -8 -70 -10 -36 -7 -78 -13 -130 -20 -25 -3 -63 -8 -85 -11 -93 -13 -76
-11 -265 -29 -30 -3 -73 -7 -95 -10 -257 -27 -1164 -27 -1304 0 -9 2 -54 6
-100 10 -47 4 -92 8 -100 10 -9 1 -47 6 -86 10 -38 4 -77 8 -85 10 -33 6 -97
15 -135 20 -59 7 -201 32 -350 61 -71 14 -141 28 -155 30 -14 3 -113 27 -220
54 -806 200 -1531 508 -2249 952 -181 113 -334 217 -550 375 -133 98 -326 256
-516 422 -114 100 -479 459 -575 566 -228 253 -394 457 -571 700 -60 82 -220
317 -244 357 -5 9 -39 63 -74 120 -127 202 -235 397 -361 653 -183 371 -313
688 -433 1060 -42 130 -105 340 -112 375 -2 8 -17 71 -35 140 -30 119 -92 406
-104 480 -3 19 -8 45 -10 57 -3 11 -7 43 -11 70 -4 26 -9 59 -11 73 -10 62
-34 229 -39 273 -12 110 -15 138 -29 292 -22 226 -28 842 -12 1095 12 187 13
207 20 275 4 33 9 85 12 115 7 71 12 116 18 160 3 19 13 85 21 145 19 133 21
143 45 270 11 55 21 111 24 125 10 61 60 278 96 416 231 891 624 1745 1149
2499 139 201 332 452 452 590 14 17 59 68 100 115 116 134 162 183 349 370
221 221 388 371 665 599 151 123 537 395 750 527 310 191 726 408 1035 538
102 43 199 84 215 91 57 25 360 133 472 169 214 69 470 137 743 200 82 18 379
73 445 82 28 3 52 7 55 9 3 2 34 6 70 10 36 4 72 8 80 10 13 2 104 13 170 20
14 2 61 6 105 10 44 4 91 8 104 10 12 2 87 7 165 11 77 3 143 8 145 10 4 4
758 -5 796 -10z"/>
<path d="M9070 17753 c-41 -197 -31 -394 31 -584 27 -85 96 -214 155 -290 49
-64 155 -157 208 -183 l31 -15 13 52 c15 59 20 264 9 348 -29 223 -162 481
-331 642 -102 98 -102 98 -116 30z"/>
<path d="M7852 17502 l-40 -97 31 -15 c306 -142 448 -218 645 -347 105 -68
267 -185 319 -229 11 -11 40 -34 62 -53 139 -113 377 -348 502 -496 354 -417
624 -867 845 -1409 25 -60 43 -110 41 -113 -3 -2 -60 28 -128 67 -451 259
-1017 477 -1574 606 -60 14 -121 27 -135 30 -14 3 -70 13 -125 24 -55 10 -120
21 -145 25 -25 3 -52 8 -60 10 -8 2 -37 7 -65 10 -27 4 -61 8 -75 10 -14 2
-54 7 -90 10 -36 4 -73 9 -83 11 -9 1 -56 6 -105 9 -48 4 -97 8 -109 10 -83
13 -690 26 -766 16 l-27 -3 4 -98 c4 -99 10 -125 27 -115 19 12 526 5 709 -10
279 -23 401 -37 605 -71 50 -9 106 -18 125 -20 19 -3 51 -9 70 -14 19 -5 49
-12 65 -14 252 -45 779 -204 1002 -302 18 -8 48 -21 67 -29 19 -8 36 -15 39
-15 7 0 150 -66 267 -123 561 -273 1084 -663 1505 -1122 117 -127 305 -359
305 -376 0 -12 -199 -344 -208 -346 -4 -1 -26 24 -50 55 -23 31 -55 71 -70 89
-15 17 -36 42 -46 55 -137 168 -332 365 -576 582 -151 134 -469 365 -658 477
-309 184 -597 319 -937 440 -135 48 -398 128 -494 150 -25 6 -55 13 -66 15
-40 9 -221 45 -255 50 -19 3 -42 7 -50 9 -8 2 -37 7 -65 10 -27 3 -61 8 -75
10 -14 3 -52 7 -85 10 -33 3 -78 8 -100 10 -286 30 -878 20 -1165 -20 -14 -2
-56 -6 -93 -10 -37 -3 -76 -8 -85 -10 -9 -1 -42 -6 -72 -10 -97 -12 -91 -3
-88 -123 3 -119 -2 -112 78 -99 19 3 67 9 105 12 39 4 77 8 85 10 8 2 51 7 95
11 44 3 96 7 115 9 108 11 302 18 505 18 281 1 492 -11 700 -39 17 -2 50 -7
75 -9 25 -3 70 -10 100 -15 30 -5 73 -12 95 -15 22 -4 47 -8 55 -10 8 -2 31
-7 50 -10 19 -3 55 -11 80 -16 25 -6 53 -12 62 -14 231 -48 714 -214 888 -306
l35 -18 -45 -1 c-25 -1 -54 -3 -65 -4 -11 -2 -48 -6 -83 -10 -34 -3 -106 -15
-160 -26 -364 -73 -671 -207 -960 -422 -185 -137 -370 -323 -508 -510 l-44
-60 87 -62 c86 -61 88 -62 102 -42 8 12 39 52 70 91 162 202 338 365 531 490
41 27 86 56 100 65 21 14 163 83 245 120 126 57 384 126 540 145 28 4 66 9 85
12 73 10 319 10 420 -2 125 -14 127 -15 330 -157 69 -48 190 -140 270 -205
146 -119 449 -412 576 -557 79 -90 240 -289 279 -346 l27 -39 -55 -113 c-171
-348 -292 -713 -343 -1034 -3 -20 -7 -45 -9 -56 -3 -11 -7 -46 -10 -77 -4 -31
-8 -67 -10 -81 -20 -132 -25 -589 -13 -1200 3 -146 3 -282 0 -302 l-4 -37 -48
30 c-82 51 -349 174 -500 232 -212 81 -524 172 -663 192 -23 4 -44 8 -47 10
-3 2 -24 6 -46 9 -22 4 -51 9 -64 11 -14 3 -45 8 -70 11 -25 3 -53 8 -62 9 -9
2 -48 7 -85 10 -37 4 -81 9 -98 11 -144 17 -470 22 -680 10 -113 -6 -144 -9
-240 -21 -22 -3 -62 -7 -90 -10 -76 -8 -183 -24 -250 -38 -11 -3 -40 -8 -65
-13 -25 -4 -47 -8 -50 -9 -3 -1 -23 -5 -45 -10 -372 -74 -873 -249 -1267 -442
l-108 -53 0 -1895 c0 -1042 3 -1895 6 -1895 3 0 42 22 87 49 203 119 536 254
868 350 88 26 144 40 299 77 28 6 214 44 240 49 14 2 54 9 90 14 36 6 76 13
89 16 13 2 49 7 80 10 31 4 63 8 71 10 8 2 51 7 94 11 44 3 89 8 100 10 44 8
309 18 506 18 255 1 576 -18 690 -39 8 -1 40 -6 71 -9 31 -4 67 -9 80 -11 13
-3 44 -7 69 -10 25 -3 52 -7 60 -10 8 -2 31 -7 50 -9 148 -19 732 -165 825
-205 11 -5 76 -28 144 -51 132 -45 417 -157 481 -190 l38 -20 69 32 c163 74
481 193 668 249 116 35 331 96 366 103 13 3 74 16 134 30 61 14 124 28 140 31
17 2 41 7 55 9 14 3 68 12 120 21 52 9 106 18 120 20 14 3 50 7 80 11 30 3 62
8 71 9 9 2 52 6 95 10 43 4 90 9 104 11 171 22 796 22 985 -1 17 -2 62 -6 100
-9 39 -4 81 -8 95 -11 14 -2 45 -6 70 -9 52 -5 91 -11 210 -32 47 -8 108 -19
135 -24 68 -11 300 -66 410 -96 332 -92 697 -235 908 -357 54 -31 100 -57 103
-57 2 0 3 854 2 1897 l-3 1896 -90 45 c-425 212 -1041 413 -1459 478 -21 3
-48 7 -59 10 -24 4 -149 21 -222 29 -27 3 -63 8 -80 10 -147 19 -607 25 -795
11 -144 -12 -157 -13 -220 -20 -116 -14 -136 -17 -160 -21 -14 -3 -41 -7 -60
-10 -19 -3 -46 -8 -60 -10 -54 -11 -76 -15 -105 -21 -16 -3 -50 -10 -75 -15
-25 -6 -55 -13 -66 -15 -251 -48 -694 -209 -993 -360 -102 -52 -186 -92 -188
-90 -2 2 -6 16 -9 32 -2 16 -9 52 -14 79 -11 59 -39 261 -45 325 -3 25 -7 59
-9 75 -3 17 -8 62 -11 100 -4 39 -8 81 -10 94 -22 136 -23 683 -1 796 2 11 7
54 11 95 4 41 9 78 11 81 2 3 6 24 8 45 15 110 55 282 106 456 111 373 333
788 616 1149 l84 107 107 -24 c139 -31 136 -31 202 -50 31 -9 63 -17 71 -19
43 -9 302 -105 421 -156 294 -125 522 -251 790 -435 74 -52 144 -102 155 -112
35 -32 108 -82 118 -81 13 0 121 139 121 155 0 33 -426 329 -666 462 -94 52
-330 168 -399 197 -36 14 -78 32 -95 40 -109 49 -454 161 -603 195 -29 7 -52
16 -50 21 5 14 207 218 300 302 273 247 545 438 808 567 58 28 113 55 122 60
10 6 39 18 66 28 44 17 54 17 103 6 119 -30 214 -58 224 -66 5 -4 15 -8 23 -8
25 0 241 -89 360 -148 310 -155 619 -392 799 -615 32 -39 66 -81 76 -92 46
-51 164 -242 220 -357 34 -70 66 -127 72 -127 5 -1 49 16 98 36 104 44 102 34
25 187 -85 170 -224 379 -343 516 -51 59 -227 233 -274 270 -24 19 -48 40 -55
45 -82 76 -320 230 -489 316 -126 64 -358 161 -417 174 -35 8 -35 8 -10 17 79
31 410 116 520 134 14 2 34 6 45 9 11 2 43 7 70 11 28 3 52 7 55 9 3 2 41 6
85 10 44 4 83 9 86 11 16 9 262 19 474 18 277 -1 622 -16 663 -29 7 -3 12 6
13 23 2 51 -1 185 -4 189 -4 3 -55 8 -217 19 -222 16 -960 7 -990 -11 -3 -2
-34 -6 -70 -10 -36 -4 -74 -9 -85 -11 -10 -2 -37 -6 -60 -10 -34 -5 -95 -17
-305 -60 -62 -13 -296 -80 -405 -116 -242 -80 -631 -251 -727 -319 -14 -11
-29 -19 -33 -19 -14 0 -291 -185 -355 -237 -8 -6 -53 -42 -100 -80 -133 -106
-237 -200 -390 -353 -139 -140 -183 -187 -286 -310 -499 -595 -794 -1227 -889
-1904 -9 -61 -18 -124 -20 -141 -20 -146 -27 -587 -11 -790 4 -60 9 -112 11
-115 1 -3 6 -39 9 -80 4 -41 9 -88 11 -105 2 -16 7 -55 10 -85 3 -30 7 -66 10
-80 2 -14 9 -61 15 -106 6 -44 12 -89 14 -100 2 -10 7 -39 11 -64 4 -25 9 -54
12 -65 2 -11 6 -31 9 -45 3 -14 12 -52 21 -85 8 -33 17 -70 19 -82 8 -42 76
-237 111 -317 124 -284 224 -367 444 -368 131 0 209 18 594 141 353 112 630
186 770 206 22 3 51 8 64 11 13 3 43 7 65 10 23 2 55 6 71 8 100 14 231 21
380 21 157 -1 361 -11 375 -20 3 -2 32 -6 64 -9 146 -15 442 -89 654 -165 187
-67 434 -180 620 -285 l62 -36 1 68 c0 37 2 91 3 120 l2 53 -201 99 c-315 155
-627 267 -895 319 -30 6 -66 13 -80 16 -40 8 -141 23 -195 30 -27 3 -66 8 -85
11 -61 10 -521 12 -610 3 -154 -15 -192 -21 -382 -54 -148 -26 -462 -110 -708
-190 -326 -105 -449 -137 -549 -141 -131 -5 -157 15 -239 181 -48 98 -112 263
-112 289 0 26 289 177 515 269 221 90 588 200 810 243 22 4 42 8 45 9 3 1 30
5 60 10 30 5 57 9 60 10 5 1 96 13 158 21 17 2 47 6 65 8 125 17 226 21 482
21 257 0 438 -7 503 -20 11 -2 48 -6 81 -10 33 -3 68 -8 79 -10 11 -2 42 -7
69 -11 26 -3 57 -8 68 -10 11 -3 36 -7 55 -10 19 -3 62 -12 95 -19 33 -8 71
-16 85 -18 14 -3 54 -13 90 -22 36 -9 72 -18 80 -20 42 -9 211 -59 335 -101
171 -57 294 -105 486 -191 l147 -65 0 -1649 c-1 -907 -3 -1649 -5 -1649 -2 0
-56 22 -121 49 -191 80 -551 203 -659 226 -10 2 -63 15 -118 29 -111 28 -422
91 -500 100 -27 4 -63 9 -80 11 -49 7 -96 13 -160 20 -33 4 -70 8 -82 10 -11
2 -72 6 -135 10 -62 4 -131 9 -153 11 -49 4 -522 4 -585 -1 -25 -1 -92 -6
-149 -10 -58 -4 -116 -8 -130 -10 -15 -2 -55 -6 -91 -10 -58 -6 -222 -28 -305
-41 -16 -2 -91 -16 -165 -30 -74 -14 -146 -28 -160 -30 -14 -3 -79 -18 -145
-35 -66 -16 -128 -32 -138 -34 -170 -40 -709 -220 -809 -271 l-28 -15 0 103
c0 57 0 631 0 1276 0 644 -4 1173 -8 1173 -18 3 -188 5 -197 2 -7 -2 -10 -414
-10 -1273 0 -723 -4 -1270 -9 -1270 -5 0 -72 24 -150 54 -291 112 -618 211
-908 277 -97 21 -101 22 -158 33 -19 3 -44 8 -55 10 -11 2 -36 6 -55 10 -19 3
-46 8 -60 11 -13 3 -42 7 -65 10 -22 3 -67 10 -100 15 -71 11 -122 17 -190 25
-27 2 -68 7 -90 9 -48 6 -198 17 -275 21 -71 4 -542 5 -600 1 -182 -12 -259
-18 -285 -21 -16 -2 -55 -6 -85 -10 -60 -6 -187 -23 -235 -31 -16 -3 -46 -7
-65 -10 -19 -2 -42 -6 -50 -9 -8 -2 -31 -7 -50 -10 -235 -38 -638 -146 -875
-235 -60 -23 -114 -42 -120 -44 -14 -4 -35 -13 -139 -57 -49 -21 -91 -37 -95
-35 -3 2 -6 744 -6 1648 l0 1643 50 25 c44 22 116 55 210 96 326 142 832 291
1155 340 19 3 76 12 125 19 293 45 879 56 1095 21 14 -3 50 -7 80 -10 289 -32
773 -160 1005 -266 11 -5 54 -23 95 -41 94 -40 307 -150 378 -195 52 -34 53
-36 48 -72 -3 -20 -9 -55 -12 -77 -16 -107 -66 -262 -106 -332 -21 -35 -72
-63 -115 -63 -64 0 -208 42 -511 149 -219 77 -491 156 -612 177 -14 3 -56 11
-95 19 -38 7 -97 17 -130 21 -33 3 -69 8 -80 10 -94 19 -502 25 -688 12 -160
-12 -401 -53 -582 -99 -44 -12 -87 -22 -95 -24 -8 -2 -68 -19 -132 -39 -317
-97 -777 -294 -779 -334 -1 -20 -1 -180 0 -204 1 -14 28 -4 142 53 263 132
506 227 761 299 149 43 397 96 483 105 28 3 61 7 74 10 136 26 655 27 811 1
14 -3 43 -7 65 -11 39 -5 75 -11 125 -19 58 -10 189 -38 236 -52 28 -8 62 -17
75 -19 67 -13 350 -105 599 -195 14 -5 57 -18 95 -29 275 -79 430 -47 532 112
49 78 117 282 137 412 3 22 8 51 11 65 3 14 7 48 10 75 2 28 8 79 12 115 5 36
7 254 5 485 -7 800 -6 861 1 990 4 72 9 144 11 160 3 17 7 50 10 75 15 139 41
272 93 464 95 354 220 629 508 1121 163 279 211 352 350 540 443 597 1026
1077 1635 1345 341 150 837 284 1245 335 28 4 61 8 75 10 14 2 52 7 85 10 33
3 74 8 90 10 76 9 236 21 415 31 69 3 126 7 128 9 3 2 5 126 3 182 l-1 33 -67
-5 c-38 -2 -111 -7 -163 -10 -149 -9 -209 -14 -365 -31 -47 -5 -83 -9 -165
-19 -52 -7 -242 -35 -265 -39 -11 -2 -60 -12 -110 -21 -49 -9 -99 -19 -110
-21 -215 -41 -596 -156 -790 -239 -16 -7 -55 -23 -85 -36 -232 -98 -498 -251
-729 -421 l-93 -69 47 86 c26 48 60 108 75 133 16 26 36 60 45 75 17 30 164
255 177 272 4 6 47 62 94 125 320 427 688 766 1074 990 90 52 262 138 343 170
45 18 57 26 52 39 -4 9 -20 52 -36 96 -17 44 -32 81 -34 83 -9 9 -252 -101
-390 -178 -101 -56 -335 -214 -432 -292 -95 -77 -234 -197 -244 -211 -3 -4 -7
18 -8 50 -7 270 -90 542 -232 758 l-49 75 -77 -56 c-43 -31 -81 -60 -86 -64
-4 -3 17 -47 47 -97 128 -213 186 -431 180 -690 -1 -76 -5 -147 -7 -158 -3
-11 -6 -30 -6 -41 -1 -12 -37 -64 -82 -115 -44 -52 -127 -157 -185 -234 -57
-77 -108 -144 -112 -150 -22 -29 -147 -224 -202 -315 -86 -142 -211 -385 -285
-552 -60 -136 -60 -136 -178 -259 -167 -173 -325 -365 -484 -587 l-31 -43 -87
108 c-49 59 -98 119 -111 133 -13 14 -43 47 -66 74 -167 191 -468 466 -718
655 -52 39 -107 81 -122 92 -15 12 -32 35 -37 52 -33 115 -176 482 -229 592
-28 58 -29 61 -16 115 30 128 64 217 149 395 158 328 429 618 731 780 38 20
74 40 79 44 6 4 58 27 118 52 83 33 106 47 101 59 -3 8 -17 49 -31 90 -14 41
-29 79 -34 84 -11 12 -75 -12 -234 -89 -346 -167 -623 -419 -830 -755 -62
-101 -150 -280 -181 -367 -10 -29 -21 -53 -24 -53 -3 0 -23 30 -43 68 -78 140
-104 182 -219 354 -96 142 -283 390 -350 463 -7 8 -44 48 -83 91 -325 357
-703 660 -1110 887 -75 41 -347 174 -403 196 l-50 20 -40 -97z"/>
<path d="M14040 17229 c-129 -107 -198 -188 -265 -313 -46 -84 -101 -244 -112
-323 -11 -81 -9 -314 3 -336 9 -16 16 -14 70 26 231 172 383 462 386 736 0 36
-2 82 -6 101 -28 141 -31 146 -76 109z"/>
<path d="M10886 17200 c-76 -85 -131 -192 -163 -322 -13 -56 -11 -235 4 -301
l15 -67 37 32 c76 68 145 178 183 293 31 94 32 274 3 349 -11 27 -25 51 -31
53 -6 2 -28 -15 -48 -37z"/>
<path d="M7745 17088 c-172 -14 -380 -76 -512 -153 l-46 -28 24 -19 c67 -53
255 -147 328 -163 9 -2 41 -11 71 -19 30 -9 72 -18 93 -21 20 -3 55 -7 76 -10
56 -8 197 -8 261 0 173 20 348 92 457 189 l23 19 -33 23 c-141 95 -355 167
-540 180 -45 3 -86 6 -92 8 -5 1 -55 -2 -110 -6z"/>
<path d="M12557 16853 c-2 -5 2 -37 9 -72 15 -71 66 -185 115 -258 49 -73 168
-183 245 -229 77 -45 162 -79 172 -70 14 15 -30 175 -72 261 -90 184 -228 309
-395 359 -62 18 -68 19 -74 9z"/>
<path d="M8705 16579 c-111 -15 -230 -65 -328 -138 -68 -50 -149 -141 -162
-180 -6 -20 -3 -21 62 -22 104 -2 133 1 203 17 105 25 220 87 292 157 59 58
119 149 107 162 -10 9 -120 12 -174 4z"/>
<path d="M11005 16135 c-112 -21 -275 -83 -275 -104 0 -12 107 -83 170 -112
233 -109 492 -118 695 -24 39 17 81 41 95 52 l25 21 -25 21 c-61 51 -240 127
-340 146 -71 13 -275 13 -345 0z"/>
<path d="M12642 16132 c-16 -5 16 -85 62 -156 50 -74 135 -148 221 -190 70
-35 171 -64 182 -52 8 8 -33 109 -66 161 -41 67 -146 162 -214 194 -60 29
-159 52 -185 43z"/>
<path d="M14398 16129 c-68 -11 -156 -38 -206 -63 l-43 -22 58 -41 c191 -134
417 -177 628 -122 48 13 151 64 161 80 20 34 -186 136 -331 164 -49 10 -217
12 -267 4z"/>
<path d="M13957 15784 c-1 -1 -34 -4 -73 -7 -68 -6 -183 -37 -214 -57 -13 -8
-10 -14 15 -36 75 -66 155 -110 255 -143 97 -32 115 -35 230 -35 113 0 211 22
280 65 l35 21 -40 34 c-96 80 -250 139 -398 152 -48 4 -89 7 -90 6z"/>
<path d="M15609 14246 c-2 -2 -30 -6 -62 -10 -69 -7 -157 -29 -234 -58 l-55
-20 43 -40 c141 -129 376 -235 564 -255 126 -14 252 -5 345 23 60 18 177 71
185 85 9 14 -114 106 -205 153 -152 79 -287 114 -466 121 -62 2 -113 2 -115 1z"/>
<path d="M7683 14218 c-58 -9 -179 -54 -190 -71 -18 -29 174 -142 282 -168
111 -25 212 -30 315 -13 83 14 180 43 180 54 0 14 -76 76 -132 108 -136 78
-309 112 -455 90z"/>
<path d="M7130 13817 c-3 -2 -25 -7 -50 -10 -148 -18 -306 -86 -424 -183 -36
-30 -66 -58 -66 -63 0 -9 119 -66 172 -82 145 -45 382 -59 533 -33 142 26 303
90 422 168 48 32 73 52 73 58 0 18 -226 108 -309 123 -14 3 -37 8 -51 11 -33
8 -293 18 -300 11z"/>
<path d="M8767 13722 c-63 -96 -98 -225 -92 -346 4 -97 23 -163 66 -231 30
-47 32 -48 46 -30 9 11 26 43 39 70 61 130 74 295 34 427 -20 66 -55 148 -64
148 -2 0 -15 -17 -29 -38z"/>
<path d="M15307 13566 c-111 -169 -152 -384 -112 -581 16 -77 65 -186 105
-235 20 -25 20 -25 36 -5 30 39 64 115 89 202 27 93 36 221 23 333 -12 100
-86 298 -115 307 -5 2 -18 -7 -26 -21z"/>
<path d="M8414 13538 c-67 -44 -221 -200 -272 -275 -127 -188 -190 -383 -190
-587 0 -89 25 -236 43 -254 6 -7 100 65 156 119 94 92 194 238 242 354 50 123
75 216 92 346 9 64 8 206 -1 264 -4 22 -7 46 -7 53 -1 18 -8 15 -63 -20z"/>
<path d="M13557 12703 c-13 -22 12 -189 39 -271 72 -217 212 -374 394 -443 47
-18 50 -18 51 -1 6 89 -32 245 -85 350 -67 132 -198 269 -327 341 -60 33 -65
35 -72 24z"/>
<path d="M8767 8574 c-1 -1 -67 -5 -147 -8 -148 -7 -204 -11 -275 -20 -22 -3
-62 -8 -90 -12 -51 -6 -304 -49 -340 -58 -11 -2 -72 -16 -135 -30 -256 -58
-583 -173 -815 -285 l-121 -59 -2 -122 c-1 -67 2 -120 6 -118 4 2 72 36 152
75 191 95 343 154 590 231 112 35 378 98 485 115 17 3 73 12 125 20 88 14 122
18 263 32 155 15 457 21 607 11 165 -11 236 -17 260 -21 14 -3 48 -7 75 -10
258 -28 628 -115 910 -215 50 -17 110 -38 133 -46 62 -22 298 -122 354 -150
26 -13 52 -24 57 -24 5 0 9 51 10 113 l2 113 -63 28 c-455 206 -981 359 -1378
401 -30 4 -86 10 -125 15 -38 4 -77 8 -85 8 -8 0 -67 3 -130 7 -102 6 -319 12
-323 9z"/>
<path d="M13807 8574 c-1 -1 -76 -5 -167 -9 -91 -3 -178 -8 -195 -9 -72 -6
-169 -19 -285 -37 -163 -25 -169 -26 -275 -49 -49 -11 -94 -21 -100 -21 -5 -1
-20 -5 -33 -10 -13 -5 -35 -11 -50 -14 -83 -14 -391 -116 -552 -182 -75 -31
-289 -130 -299 -139 -5 -5 -12 -244 -6 -244 2 0 42 20 87 44 185 99 472 212
718 282 160 45 485 112 630 129 173 20 230 25 345 31 72 4 162 7 200 7 91 0
386 -13 394 -17 3 -2 49 -7 101 -11 52 -3 97 -8 100 -10 3 -2 29 -6 58 -10 69
-7 283 -48 397 -75 275 -65 616 -182 867 -298 141 -65 128 -72 128 61 0 83 -4
116 -12 120 -7 3 -87 37 -178 77 -326 141 -680 248 -1045 315 -48 9 -225 33
-290 40 -33 4 -71 8 -85 10 -48 7 -447 24 -453 19z"/>
<path d="M8579 7696 c-2 -2 -44 -7 -94 -11 -49 -3 -101 -8 -115 -10 -27 -4
-83 -11 -165 -20 -27 -3 -70 -10 -95 -15 -25 -5 -61 -11 -80 -14 -19 -3 -46
-7 -60 -11 -27 -7 -58 -13 -92 -19 -28 -5 -262 -63 -303 -76 -281 -85 -584
-205 -695 -275 l-36 -23 -2 -121 -3 -122 38 24 c103 65 413 197 613 261 117
38 426 120 490 130 19 3 71 12 115 20 44 8 103 18 130 21 63 8 112 14 150 20
180 27 701 27 930 0 17 -2 55 -6 85 -10 65 -8 95 -12 175 -26 33 -6 74 -13 90
-16 31 -4 225 -47 285 -62 169 -44 316 -90 493 -155 105 -38 101 -36 289 -120
70 -31 132 -56 137 -56 14 0 12 217 -2 228 -17 13 -254 114 -377 160 -378 143
-816 247 -1170 278 -36 3 -76 8 -90 11 -30 6 -635 14 -641 9z"/>
<path d="M13569 7695 c-2 -2 -42 -6 -89 -10 -47 -3 -96 -8 -110 -10 -14 -2
-52 -7 -84 -10 -246 -25 -622 -112 -901 -207 -196 -67 -516 -206 -532 -231 -4
-6 -8 -63 -10 -128 l-3 -117 79 43 c329 177 863 349 1246 401 16 2 40 6 52 8
12 3 53 8 90 11 37 4 75 9 83 10 142 26 693 26 915 0 17 -2 55 -6 85 -10 369
-42 915 -189 1225 -330 17 -8 81 -36 143 -64 l112 -49 0 116 0 117 -118 52
c-472 209 -990 349 -1442 389 -36 3 -76 8 -90 11 -28 6 -646 14 -651 8z"/>
<path d="M17245 19551 c-49 -33 -290 -186 -535 -341 -245 -156 -466 -296 -492
-313 l-46 -31 33 -26 c18 -14 57 -43 87 -63 l55 -38 142 91 141 91 93 -69 c50
-37 134 -99 185 -136 50 -37 92 -73 92 -79 0 -7 -18 -79 -40 -162 -22 -82 -40
-153 -40 -157 0 -10 179 -138 184 -130 2 4 31 113 65 242 33 129 81 312 105
405 174 666 181 694 174 699 -1 1 -26 19 -54 39 -29 20 -53 37 -55 37 -2 -1
-44 -27 -94 -59z m-74 -317 c-12 -36 -40 -135 -81 -278 -16 -60 -31 -111 -33
-112 -2 -2 -58 38 -126 88 l-124 92 24 19 c34 28 343 226 346 223 2 -2 -1 -16
-6 -32z"/>
<path d="M4706 19106 c-54 -52 -66 -68 -62 -87 3 -13 8 -76 10 -139 3 -63 8
-162 12 -219 10 -169 10 -286 -1 -285 -5 1 -44 5 -85 8 -41 4 -84 9 -95 11
-11 2 -54 7 -95 10 -41 3 -88 8 -105 11 -39 6 -101 12 -200 19 l-80 6 -62 -61
c-35 -34 -63 -63 -63 -64 0 -1 37 -41 83 -88 45 -47 113 -119 151 -160 38 -40
112 -118 165 -173 53 -55 170 -178 261 -274 91 -96 180 -189 198 -208 l33 -34
70 67 c38 37 69 72 69 77 0 5 -38 49 -84 96 -126 130 -170 176 -301 315 -66
70 -153 161 -194 203 l-73 76 78 -8 c44 -4 86 -8 95 -10 8 -2 49 -6 90 -10 41
-3 88 -8 104 -11 17 -3 50 -7 74 -9 24 -2 71 -7 103 -10 77 -9 99 7 93 69 -2
22 -6 100 -10 171 -8 186 -15 315 -20 353 -2 17 -1 32 2 32 5 0 29 -24 225
-231 191 -201 258 -271 350 -367 l80 -84 26 24 c14 13 48 44 74 69 l49 46 -33
35 c-28 31 -181 191 -401 422 -137 143 -336 352 -392 412 -33 35 -63 64 -66
64 -4 0 -36 -29 -73 -64z"/>
<path d="M18050 18970 c-38 -40 -463 -476 -768 -787 -46 -47 -81 -88 -78 -91
3 -4 36 -37 72 -73 l66 -66 163 166 c90 91 234 238 320 326 l156 160 -6 -50
c-3 -27 -8 -66 -11 -85 -3 -19 -7 -60 -10 -90 -3 -30 -7 -66 -9 -80 -2 -14 -7
-54 -10 -90 -4 -36 -9 -72 -10 -81 -2 -9 -6 -52 -10 -95 -4 -43 -9 -81 -10
-84 -2 -3 -6 -39 -10 -80 -4 -41 -9 -83 -10 -92 -2 -9 -7 -48 -10 -85 -4 -37
-9 -70 -10 -73 -2 -3 -6 -41 -10 -85 l-6 -80 64 -63 63 -63 335 342 c388 397
503 515 542 557 l29 30 -68 66 c-37 36 -72 66 -77 66 -5 0 -23 -15 -41 -34
-75 -81 -600 -615 -602 -613 -2 2 1 32 6 67 14 103 22 170 36 295 3 28 7 57 9
65 2 8 7 44 10 80 3 36 8 81 10 100 3 19 7 55 10 80 3 25 8 65 11 90 4 25 8
56 9 70 1 14 10 87 20 164 l17 138 -63 64 c-35 35 -66 64 -69 63 -3 0 -25 -22
-50 -49z"/>
<path d="M18815 17764 c-154 -124 -291 -234 -305 -245 -14 -11 -111 -88 -217
-172 -105 -84 -192 -156 -192 -161 -1 -7 404 -521 445 -565 11 -12 18 -10 48
12 19 15 40 32 48 40 7 7 25 22 40 33 l27 21 -169 211 -169 210 144 116 144
116 49 -58 c26 -32 79 -98 117 -147 38 -50 72 -92 75 -95 3 -3 15 -17 27 -32
l21 -28 76 61 76 61 -29 36 c-38 48 -218 272 -236 295 -8 9 -15 21 -15 26 0
12 252 212 262 209 4 -2 73 -85 153 -186 l145 -182 53 26 c98 48 117 59 117
66 0 10 -441 558 -449 558 -3 -1 -132 -102 -286 -226z"/>
<path d="M3315 17359 c-126 -26 -235 -85 -347 -189 -75 -69 -175 -244 -203
-355 -70 -270 40 -558 273 -713 358 -238 799 -99 1000 316 71 147 86 338 38
487 -103 323 -434 520 -761 454z m225 -211 c80 -20 162 -68 226 -132 95 -96
137 -195 136 -326 0 -133 -52 -250 -157 -355 -127 -127 -302 -170 -466 -115
-296 99 -420 416 -268 686 112 198 322 295 529 242z"/>
<path d="M19550 17026 c-107 -67 -296 -184 -420 -260 -311 -192 -459 -284
-468 -292 -2 -1 5 -15 16 -31 11 -15 35 -54 54 -85 l35 -57 439 270 c241 149
451 279 466 289 20 15 28 16 36 7 5 -7 80 -126 166 -266 127 -206 155 -256
144 -266 -12 -11 -771 -481 -870 -539 l-48 -28 15 -29 c9 -16 32 -56 53 -88
l37 -59 547 336 c301 185 547 341 548 345 0 4 -37 67 -82 140 -44 73 -117 191
-161 262 -44 72 -95 153 -112 180 -18 28 -65 105 -106 172 -41 67 -78 122 -84
122 -5 -1 -98 -56 -205 -123z"/>
<path d="M2331 16123 l-52 -108 24 -55 c14 -30 62 -131 107 -225 116 -239 161
-337 152 -332 -28 17 -466 227 -468 225 -7 -8 -84 -168 -84 -175 0 -4 35 -25
78 -45 42 -20 185 -89 317 -154 215 -104 372 -180 661 -320 50 -24 95 -44 100
-44 5 1 28 41 50 89 l42 88 -122 59 c-304 146 -356 173 -338 178 9 2 160 39
335 82 l319 77 57 119 c31 65 53 118 48 118 -13 0 -267 -59 -567 -131 -47 -12
-92 -22 -100 -24 -68 -15 -118 -27 -133 -31 -14 -5 -28 17 -76 118 -32 68 -97
203 -145 302 -47 98 -98 205 -112 237 -15 33 -30 59 -33 59 -4 0 -31 -48 -60
-107z"/>
<path d="M20424 15895 c-45 -22 -397 -194 -901 -440 -112 -54 -203 -104 -202
-109 0 -6 19 -48 42 -92 l42 -81 175 85 c96 47 265 129 375 182 440 214 600
292 604 296 4 4 -55 139 -74 166 -10 16 -15 15 -61 -7z"/>
<path d="M20608 15344 c-112 -139 -172 -213 -280 -346 -90 -110 -59 -101 -258
-72 -58 9 -118 17 -133 19 -15 2 -47 7 -70 10 -23 4 -58 8 -77 11 -19 3 -46 7
-60 9 -14 3 -45 7 -70 10 -25 3 -57 8 -71 10 -14 3 -42 7 -61 9 l-35 5 57
-152 c170 -446 279 -729 284 -734 5 -6 139 40 164 56 10 6 -11 71 -92 284 -58
152 -106 279 -106 283 0 3 26 3 58 -1 31 -4 73 -9 92 -11 19 -2 46 -6 60 -9
14 -2 52 -7 85 -11 33 -3 67 -8 77 -9 14 -3 66 -11 138 -20 22 -3 42 18 152
158 70 89 141 177 156 195 l29 34 11 -29 c34 -89 170 -451 176 -467 5 -16 13
-17 49 -11 23 3 58 9 77 11 70 9 75 11 72 27 -1 9 -29 85 -61 169 -32 84 -95
250 -140 368 -45 118 -85 222 -88 230 -3 8 -7 17 -8 20 -1 3 -8 20 -16 39
l-15 34 -96 -119z"/>
<path d="M1856 15068 c-8 -18 -25 -61 -39 -96 l-26 -63 22 -8 c179 -70 1174
-453 1180 -454 12 -3 79 175 70 184 -10 9 -66 31 -268 109 -756 288 -887 339
-918 357 -4 2 -14 -11 -21 -29z"/>
<path d="M1641 14506 c-26 -84 -35 -136 -25 -136 9 0 59 -14 229 -60 44 -12
87 -23 95 -25 8 -2 56 -15 106 -29 50 -15 100 -29 110 -31 105 -24 332 -91
326 -96 -4 -4 -241 -102 -527 -219 -286 -116 -524 -216 -530 -221 -13 -13 -55
-168 -47 -173 7 -4 116 -36 142 -41 20 -5 852 -231 915 -250 60 -17 138 -37
145 -37 3 0 12 -4 21 -9 14 -7 21 6 44 87 15 53 23 100 18 104 -4 4 -102 33
-218 64 -115 31 -232 64 -260 71 -27 8 -124 35 -214 59 -89 25 -165 47 -168
49 -2 3 6 8 19 13 12 4 207 83 433 177 225 93 452 187 504 208 52 21 96 41 99
44 3 2 15 43 28 89 20 78 21 86 6 90 -23 7 -956 262 -1052 287 -41 11 -97 27
-124 35 -27 7 -51 14 -52 14 -2 0 -12 -29 -23 -64z"/>
<path d="M21001 14329 c-35 -10 -66 -20 -68 -23 -3 -3 16 -87 42 -186 25 -100
45 -183 43 -185 -2 -2 -120 -33 -263 -70 -143 -36 -366 -93 -495 -127 -129
-33 -246 -62 -259 -65 -47 -8 -47 -7 -14 -135 12 -46 22 -68 32 -68 8 0 105
23 216 51 110 28 207 53 215 55 25 5 315 80 464 118 76 20 144 36 150 36 10 0
91 -298 86 -316 -5 -17 32 -23 115 -18 49 3 90 6 91 7 1 1 -18 79 -42 172 -24
94 -46 179 -48 190 -3 11 -36 144 -75 296 -39 152 -71 279 -71 283 0 11 -53 4
-119 -15z"/>
<path d="M21325 13119 c-33 -4 -89 -10 -125 -13 -36 -4 -99 -11 -140 -16 -89
-11 -144 -17 -225 -25 -33 -4 -71 -8 -85 -10 -14 -2 -56 -7 -95 -11 -38 -3
-78 -8 -87 -9 -9 -2 -49 -7 -90 -10 -40 -4 -86 -9 -103 -11 -16 -2 -57 -7 -90
-10 -33 -4 -67 -8 -75 -10 -8 -1 -30 -3 -48 -3 -30 -1 -32 -3 -27 -28 2 -16 7
-59 11 -98 5 -62 17 -90 34 -80 3 1 39 6 80 10 41 3 82 8 90 10 8 2 48 7 87
10 40 3 81 8 91 10 11 2 55 6 98 10 43 4 82 9 87 12 4 2 8 -10 8 -26 1 -17 2
-34 3 -38 1 -5 6 -44 10 -88 5 -44 9 -87 11 -95 1 -8 6 -51 10 -95 4 -44 8
-82 10 -85 1 -3 6 -41 9 -85 4 -44 9 -88 12 -97 3 -12 0 -18 -10 -19 -9 -1
-19 -2 -23 -3 -5 -1 -42 -6 -83 -10 -41 -5 -83 -10 -93 -11 -9 -2 -52 -6 -95
-10 -42 -3 -84 -8 -92 -10 -8 -2 -46 -7 -85 -10 -72 -7 -88 -12 -81 -23 3 -6
17 -131 19 -171 0 -11 15 -12 76 -7 42 3 87 8 101 10 29 5 128 16 180 21 35 3
106 11 190 21 25 3 65 7 90 9 25 2 59 6 75 9 17 2 64 8 105 11 41 4 82 8 90
10 8 2 49 6 90 10 41 3 82 8 90 10 8 2 49 7 90 10 112 9 109 8 104 68 -2 29
-6 66 -8 82 -3 17 -5 38 -5 48 -1 15 -7 17 -33 13 -18 -3 -60 -8 -93 -11 -33
-4 -71 -8 -85 -10 -14 -2 -56 -7 -95 -10 -38 -3 -81 -8 -95 -10 -71 -12 -130
-15 -130 -8 0 4 -4 37 -9 73 -5 36 -12 94 -16 130 -4 36 -8 79 -10 95 -2 17
-6 57 -10 90 -3 33 -8 71 -10 85 -2 14 -7 53 -10 88 -6 60 -6 62 17 63 13 0
37 2 53 4 17 2 55 6 85 10 30 3 69 7 85 9 17 2 59 7 95 10 36 4 76 8 89 11 13
2 41 5 62 7 35 2 38 4 34 27 -2 14 -7 57 -10 96 -7 76 -10 86 -28 84 -7 -1
-39 -5 -72 -10z"/>
<path d="M1296 13111 c-2 -3 -7 -36 -10 -73 -4 -37 -9 -78 -12 -92 -5 -31 4
-34 166 -51 30 -4 66 -8 80 -10 23 -4 49 -7 170 -20 114 -13 111 -12 106 -53
-3 -20 -8 -57 -11 -82 -9 -76 -16 -134 -20 -160 -2 -14 -7 -50 -10 -80 -3 -30
-10 -86 -15 -125 -6 -38 -11 -85 -12 -102 -2 -29 -8 -36 -28 -35 -14 0 -137
14 -150 17 -8 1 -42 6 -75 10 -33 3 -107 13 -165 20 -58 8 -108 11 -112 7 -3
-4 -8 -25 -11 -47 -19 -144 -19 -152 -5 -152 16 -1 124 -13 158 -18 14 -2 52
-6 85 -10 33 -3 74 -8 90 -11 28 -4 625 -78 725 -89 25 -3 59 -8 75 -10 17 -2
53 -7 81 -10 60 -6 59 -7 69 105 4 36 8 71 10 78 3 6 1 12 -3 13 -4 0 -14 2
-22 3 -14 3 -88 12 -182 22 -20 2 -49 6 -65 8 -15 3 -53 7 -83 11 -177 19
-216 27 -206 43 2 4 7 36 11 72 4 36 9 73 10 82 2 9 7 48 10 85 4 37 8 75 10
83 3 8 7 42 10 75 4 33 8 71 10 85 2 14 6 48 10 77 6 46 9 51 28 48 12 -2 42
-6 67 -9 222 -27 269 -32 325 -41 102 -15 152 -16 152 -3 0 7 4 40 8 73 15
118 15 115 -11 116 -13 1 -27 2 -31 3 -5 2 -39 6 -78 10 -38 5 -77 10 -85 11
-9 2 -43 6 -75 10 -33 4 -71 8 -85 10 -29 4 -94 12 -165 20 -27 3 -63 8 -80
10 -16 2 -51 7 -77 10 -27 3 -69 7 -95 10 -27 3 -59 8 -73 10 -14 3 -52 7 -85
11 -33 3 -120 14 -193 23 -73 10 -135 15 -136 12z"/>
<path d="M2365 11769 c-39 -16 -79 -34 -90 -39 -11 -5 -267 -113 -570 -239
l-550 -230 2 -67 c1 -37 6 -70 10 -74 4 -4 35 -17 68 -28 48 -16 1101 -404
1196 -440 l26 -11 0 108 0 107 -56 21 c-87 33 -483 177 -616 224 -66 23 -124
45 -130 49 -5 4 -38 15 -73 25 -39 11 -58 21 -50 26 7 4 211 87 453 184 242
97 445 179 450 181 10 4 13 220 3 229 -1 2 -35 -10 -73 -26z"/>
<path d="M20270 11646 l0 -102 38 0 c157 -3 824 -20 890 -23 18 -1 -20 -36
-160 -148 -275 -220 -288 -232 -288 -258 0 -16 26 -46 88 -101 48 -44 92 -83
98 -89 19 -17 156 -140 213 -189 l54 -48 -294 6 c-162 4 -376 9 -476 12 l-183
4 -1 -22 c-1 -13 -2 -59 -3 -103 l-1 -80 60 -1 c196 -4 688 -16 790 -19 126
-4 412 -8 431 -6 8 1 12 32 13 91 l2 89 -37 33 c-21 18 -47 42 -58 53 -12 11
-82 74 -156 140 -74 66 -137 122 -140 125 -3 3 -28 26 -56 52 l-52 47 27 24
c14 13 131 108 259 211 127 103 232 193 233 199 4 79 4 169 -1 172 -3 2 -120
6 -260 9 -140 4 -343 9 -450 11 -107 3 -282 7 -387 10 l-193 4 0 -103z"/>
<path d="M2390 10578 c-36 -21 -74 -43 -85 -48 -11 -6 -249 -144 -530 -308
l-510 -299 3 -64 c2 -35 7 -68 12 -73 8 -8 171 -48 250 -62 19 -3 38 -8 41
-10 3 -2 21 -6 40 -9 19 -3 42 -8 51 -11 9 -3 25 -7 35 -9 10 -2 209 -47 443
-100 234 -53 436 -99 449 -101 14 -3 29 -7 33 -11 5 -3 6 14 3 39 -3 23 -9 59
-11 78 -9 59 -15 94 -17 97 -2 2 -751 169 -802 179 -11 2 -53 11 -93 21 l-72
17 67 39 c38 22 82 47 98 56 17 9 181 101 366 205 l335 188 -13 82 c-7 44 -14
94 -15 109 -1 16 -5 30 -8 32 -3 2 -34 -15 -70 -37z"/>
<path d="M20193 10257 c0 -11 -5 -49 -19 -144 -5 -33 -3 -43 7 -44 8 0 21 -2
29 -3 8 -2 35 -6 60 -9 25 -3 63 -8 85 -11 118 -17 334 -46 455 -61 36 -5 67
-9 70 -10 3 -1 34 -5 70 -9 36 -5 73 -10 84 -12 10 -2 44 -6 75 -10 31 -3 63
-8 71 -9 9 -2 43 -6 75 -10 33 -4 67 -9 76 -10 61 -11 119 -15 120 -8 1 4 3
17 4 28 2 11 8 51 14 89 7 38 10 70 9 71 -3 3 -51 11 -133 21 -22 2 -51 7 -65
9 -14 2 -45 7 -70 10 -43 5 -94 12 -150 20 -14 2 -63 9 -110 15 -47 6 -130 17
-185 25 -55 8 -125 17 -155 20 -30 3 -66 8 -80 10 -14 2 -45 7 -70 10 -25 3
-73 10 -107 16 -119 18 -160 20 -160 6z"/>
<path d="M20465 9680 c-87 -23 -135 -43 -199 -84 -162 -104 -279 -296 -311
-511 -7 -47 -8 -212 -2 -223 3 -4 8 -24 11 -45 20 -126 129 -293 246 -378 178
-128 410 -165 615 -97 351 116 551 559 419 926 -72 200 -237 349 -449 408 -90
24 -245 26 -330 4z m282 -213 c115 -34 206 -99 266 -189 51 -78 70 -140 73
-244 5 -149 -45 -280 -144 -380 -196 -196 -535 -171 -704 53 -61 82 -89 158
-93 255 -10 247 146 466 368 513 73 15 166 12 234 -8z"/>
<path d="M2545 9389 c-38 -11 -71 -22 -73 -23 -3 -4 12 -65 88 -346 23 -85 42
-159 43 -164 2 -12 -345 -109 -354 -98 -3 4 -30 98 -59 209 -29 111 -56 207
-60 213 -11 18 -180 -29 -180 -51 0 -9 22 -99 50 -200 27 -101 51 -194 52
-208 3 -22 -5 -26 -156 -67 -88 -24 -161 -42 -163 -41 -2 3 -24 82 -102 362
l-27 100 -90 -3 c-49 -2 -92 -6 -96 -10 -4 -4 14 -88 41 -187 27 -99 68 -253
92 -342 24 -90 47 -163 52 -163 10 0 318 81 702 184 324 87 440 118 484 129
24 6 45 16 48 23 2 7 -37 168 -88 358 -105 393 -84 359 -204 325z"/>
<path d="M8880 2841 c0 -39 69 -184 115 -241 32 -40 118 -123 151 -146 48 -34
144 -80 203 -98 82 -24 82 -24 64 37 -58 199 -208 365 -385 427 -60 21 -148
34 -148 21z"/>
<path d="M13925 2745 c-130 -46 -257 -152 -329 -275 -38 -65 -66 -133 -66
-159 0 -18 3 -19 58 -6 227 53 416 212 492 414 l20 51 -53 0 c-29 0 -82 -11
-122 -25z"/>
<path d="M9434 2617 c17 -86 101 -223 196 -317 115 -116 303 -218 437 -236 26
-3 51 -8 56 -11 29 -17 -43 158 -100 245 -130 196 -337 331 -532 346 l-63 4 6
-31z"/>
<path d="M13390 2594 c-229 -43 -440 -214 -550 -446 -41 -87 -40 -101 8 -93
75 12 91 15 158 36 208 64 402 226 496 417 23 45 39 84 36 87 -10 11 -88 10
-148 -1z"/>
<path d="M12194 2535 c-194 -42 -384 -203 -488 -412 -50 -100 -72 -169 -83
-255 l-5 -48 57 20 c198 68 392 229 493 409 54 97 118 303 93 300 -3 0 -34 -7
-67 -14z"/>
<path d="M10165 2530 c-9 -15 22 -126 54 -196 89 -191 246 -339 443 -417 37
-15 71 -27 76 -27 18 0 -18 146 -58 236 -77 171 -241 329 -395 381 -86 29
-113 34 -120 23z"/>
<path d="M12725 2528 c-68 -12 -200 -77 -269 -134 -121 -98 -224 -258 -261
-403 -9 -35 -14 -65 -12 -67 6 -7 109 27 167 54 128 61 237 150 319 261 58 79
82 124 110 210 32 97 34 94 -54 79z"/>
<path d="M10697 2478 c13 -126 80 -289 167 -405 102 -136 280 -268 414 -308
20 -6 22 -3 22 27 0 18 -7 62 -14 98 -60 281 -261 525 -499 605 -42 14 -80 25
-85 25 -5 0 -7 -19 -5 -42z"/>
<path d="M8637 2245 c-84 -17 -137 -36 -137 -49 0 -24 122 -125 191 -159 112
-54 185 -70 324 -71 120 0 196 13 280 49 l37 15 -46 39 c-42 37 -124 88 -186
118 -125 60 -326 85 -463 58z"/>
<path d="M13985 2165 c-79 -15 -159 -42 -225 -75 -43 -22 -160 -99 -160 -106
0 -8 79 -43 130 -58 170 -51 384 -36 534 39 63 31 176 119 176 137 0 9 -99 45
-158 59 -71 16 -219 18 -297 4z"/>
<path d="M9460 1902 c-135 -11 -380 -96 -380 -133 0 -14 80 -69 145 -99 157
-73 374 -78 560 -15 71 25 172 75 191 96 15 17 11 20 -78 62 -138 67 -303 100
-438 89z"/>
<path d="M13288 1865 c-2 -1 -25 -5 -53 -8 -66 -7 -131 -22 -180 -42 -81 -33
-125 -55 -125 -64 0 -30 178 -121 295 -152 102 -26 265 -32 360 -12 70 14 189
66 234 102 l25 19 -56 36 c-72 45 -187 91 -267 106 -58 10 -226 21 -233 15z"/>
<path d="M10277 1654 c-1 -1 -27 -4 -57 -8 -81 -9 -102 -14 -182 -42 -104 -37
-247 -123 -248 -150 0 -15 66 -49 142 -72 194 -57 463 -5 640 126 74 54 84 68
61 80 -37 20 -151 50 -213 57 -66 7 -140 12 -143 9z"/>
<path d="M12352 1639 c-112 -28 -112 -28 -50 -84 108 -97 234 -160 383 -190
56 -11 190 -13 245 -3 62 11 180 56 180 69 0 14 -120 106 -179 137 -69 37
-156 66 -238 81 -89 17 -254 12 -341 -10z"/>
<path d="M11672 1601 c-23 -6 -23 -6 16 -66 84 -130 198 -230 350 -305 114
-56 223 -81 341 -76 53 3 108 8 124 13 l27 8 -40 61 c-103 158 -303 291 -515
343 -89 22 -256 34 -303 22z"/>
<path d="M11025 1549 c-105 -10 -140 -17 -222 -44 -174 -59 -336 -173 -423
-299 l-29 -43 42 -13 c70 -22 250 -22 337 1 150 39 301 127 409 238 53 56 116
139 109 146 -10 10 -162 19 -223 14z"/>
</g>
</svg>
